<?xml version="1.0" standalone="no"?>
<!DOCTYPE svg PUBLIC "-//W3C//DTD SVG 20010904//EN"
 "http://www.w3.org/TR/2001/REC-SVG-20010904/DTD/svg10.dtd">
<svg version="1.0" xmlns="http://www.w3.org/2000/svg"
 width="50.000000pt" height="50.000000pt" viewBox="0 0 50.000000 50.000000"
 preserveAspectRatio="xMidYMid meet">

<g transform="translate(0.000000,50.000000) scale(0.100000,-0.100000)"
fill="#000000" stroke="none">
<path d="M177 486 c-146 -54 -215 -211 -151 -339 79 -156 277 -191 398 -71 96
97 96 251 0 348 -64 63 -171 90 -247 62z m138 -37 c23 -7 57 -28 81 -53 79
-79 85 -199 13 -281 -27 -31 -33 -33 -59 -23 -17 5 -32 14 -35 19 -3 5 15 28
40 52 54 52 58 84 20 164 -28 61 -72 93 -127 93 -52 0 -89 -36 -127 -124 -32
-71 -32 -75 -16 -100 9 -14 32 -35 51 -47 42 -26 43 -36 2 -54 -32 -14 -34
-13 -65 19 -71 76 -69 198 5 278 57 60 132 80 217 57z m-15 -127 c8 2 17 -17
24 -47 12 -49 11 -52 -19 -95 -42 -60 -68 -60 -110 0 -39 56 -36 83 15 115 21
13 41 29 45 35 5 8 10 8 20 0 7 -6 18 -9 25 -8z m-12 -242 c-3 -21 -8 -25 -38
-25 -30 0 -35 4 -38 25 -3 24 0 25 38 25 38 0 41 -1 38 -25z"/>
</g>
</svg>
