<?xml version="1.0" standalone="no"?>
<!DOCTYPE svg PUBLIC "-//W3C//DTD SVG 20010904//EN"
 "http://www.w3.org/TR/2001/REC-SVG-20010904/DTD/svg10.dtd">
<svg version="1.0" xmlns="http://www.w3.org/2000/svg"
 width="50.000000pt" height="50.000000pt" viewBox="0 0 50.000000 50.000000"
 preserveAspectRatio="xMidYMid meet">

<g transform="translate(0.000000,50.000000) scale(0.100000,-0.100000)"
fill="#000000" stroke="none">
<path d="M177 486 c-146 -54 -215 -211 -151 -339 79 -156 277 -191 398 -71 96
97 96 251 0 348 -64 63 -171 90 -247 62z m138 -37 c23 -7 57 -28 81 -53 78
-78 85 -193 16 -276 -28 -32 -30 -33 -60 -21 -39 16 -39 25 -7 73 23 34 25 43
19 108 -5 47 -13 77 -25 92 -11 11 -19 27 -19 35 0 18 -70 17 -115 -1 -46 -19
-62 -49 -69 -129 -6 -61 -4 -71 19 -104 32 -48 32 -58 -6 -74 -30 -12 -33 -11
-60 19 -67 75 -63 196 9 274 57 60 132 80 217 57z m9 -136 c19 -66 17 -91 -8
-131 -42 -68 -90 -68 -132 0 -22 35 -25 47 -19 87 4 25 9 49 12 54 2 4 35 7
73 7 57 0 70 -3 74 -17z m-24 -230 c0 -16 -8 -25 -25 -29 -40 -10 -75 3 -75
29 0 20 5 22 50 22 45 0 50 -2 50 -22z"/>
</g>
</svg>
