<?xml version="1.0" standalone="no"?>
<!DOCTYPE svg PUBLIC "-//W3C//DTD SVG 20010904//EN"
 "http://www.w3.org/TR/2001/REC-SVG-20010904/DTD/svg10.dtd">
<svg version="1.0" xmlns="http://www.w3.org/2000/svg"
 width="512.000000pt" height="512.000000pt" viewBox="0 0 512.000000 512.000000"
 preserveAspectRatio="xMidYMid meet">

<g transform="translate(0.000000,512.000000) scale(0.100000,-0.100000)"
fill="#000000" stroke="none">
<path d="M995 4324 c-368 -65 -696 -307 -861 -636 -94 -187 -127 -326 -128
-538 -1 -176 14 -262 69 -418 138 -384 495 -691 892 -764 l64 -12 -6 -50 c-12
-90 -73 -313 -115 -420 -54 -137 -126 -276 -211 -406 -60 -92 -69 -113 -69
-152 0 -87 73 -153 159 -145 56 6 310 132 451 225 520 340 890 844 1064 1450
88 304 118 698 71 920 -89 427 -398 772 -808 906 -166 54 -400 71 -572 40z
m430 -308 c159 -44 289 -120 406 -236 170 -167 255 -361 266 -605 15 -315 -70
-700 -221 -1012 -112 -229 -254 -431 -426 -604 -99 -100 -269 -243 -278 -234
-2 2 10 41 26 87 68 187 108 354 137 572 15 111 15 123 0 163 -25 66 -60 84
-174 94 -221 20 -394 89 -542 216 -139 119 -231 261 -286 440 -23 78 -26 106
-27 238 -1 163 14 246 69 369 115 260 367 464 645 522 87 18 324 12 405 -10z"/>
<path d="M3715 4324 c-368 -65 -696 -307 -861 -636 -94 -187 -127 -326 -128
-538 -1 -176 14 -262 69 -418 137 -383 496 -691 888 -763 l68 -13 -6 -50 c-12
-89 -73 -313 -115 -419 -53 -135 -126 -277 -211 -408 -60 -91 -69 -112 -69
-151 0 -87 73 -153 159 -145 56 6 310 132 451 225 520 340 890 844 1064 1450
88 304 118 698 71 920 -66 315 -257 597 -521 768 -89 59 -221 120 -314 147
-161 47 -385 59 -545 31z m383 -300 c237 -49 448 -193 579 -397 89 -136 132
-276 140 -452 15 -315 -70 -700 -221 -1012 -112 -229 -255 -432 -426 -603
-101 -101 -269 -244 -278 -236 -2 3 10 42 26 88 68 187 108 354 137 572 15
111 15 123 0 163 -25 65 -60 84 -169 94 -228 21 -398 88 -547 216 -139 119
-231 261 -286 440 -23 78 -26 106 -27 238 -1 163 10 224 65 356 108 264 369
478 649 534 92 19 266 18 358 -1z"/>
</g>
</svg>
