<?xml version="1.0" standalone="no"?>
<!DOCTYPE svg PUBLIC "-//W3C//DTD SVG 20010904//EN"
 "http://www.w3.org/TR/2001/REC-SVG-20010904/DTD/svg10.dtd">
<svg version="1.0" xmlns="http://www.w3.org/2000/svg"
 width="512.000000pt" height="512.000000pt" viewBox="0 0 512.000000 512.000000"
 preserveAspectRatio="xMidYMid meet">

<g transform="translate(0.000000,512.000000) scale(0.100000,-0.100000)"
fill="#000000" stroke="none">
<path d="M995 4324 c-368 -65 -696 -307 -861 -636 -94 -187 -127 -326 -128
-538 -1 -176 14 -262 69 -418 138 -384 495 -691 892 -764 l64 -12 -6 -50 c-12
-90 -73 -313 -115 -420 -54 -137 -126 -276 -211 -406 -60 -92 -69 -113 -69
-152 0 -87 73 -153 159 -145 56 6 310 132 451 225 520 340 890 844 1064 1450
88 304 118 698 71 920 -89 427 -398 772 -808 906 -166 54 -400 71 -572 40z"/>
<path d="M3715 4324 c-368 -65 -696 -307 -861 -636 -94 -187 -127 -326 -128
-538 -1 -176 14 -262 69 -418 137 -383 496 -691 888 -763 l68 -13 -6 -50 c-12
-89 -73 -313 -115 -419 -53 -135 -126 -277 -211 -408 -60 -91 -69 -112 -69
-151 0 -87 73 -153 159 -145 56 6 310 132 451 225 520 340 890 844 1064 1450
88 304 118 698 71 920 -66 315 -257 597 -521 768 -89 59 -221 120 -314 147
-161 47 -385 59 -545 31z"/>
</g>
</svg>
