<?xml version="1.0" standalone="no"?>
<!DOCTYPE svg PUBLIC "-//W3C//DTD SVG 20010904//EN"
 "http://www.w3.org/TR/2001/REC-SVG-20010904/DTD/svg10.dtd">
<svg version="1.0" xmlns="http://www.w3.org/2000/svg"
 width="398.000000pt" height="398.000000pt" viewBox="0 0 398.000000 398.000000"
 preserveAspectRatio="xMidYMid meet">

<g transform="translate(0.000000,398.000000) scale(0.100000,-0.100000)"
fill="#000000" stroke="none">
<path d="M1837 3110 c-485 -77 -855 -425 -951 -895 -66 -321 19 -674 221 -921
24 -31 43 -58 41 -60 -11 -11 -212 -24 -368 -24 -196 0 -332 17 -432 53 -180
65 -236 147 -190 279 55 155 228 333 512 524 l126 85 13 72 c7 39 16 78 19 86
12 32 -269 -147 -413 -262 -175 -141 -333 -331 -387 -465 -18 -46 -22 -77 -23
-162 0 -97 2 -109 28 -156 77 -138 229 -224 478 -270 129 -24 473 -24 653 -1
695 93 1566 399 2134 751 286 177 529 408 621 592 157 311 2 548 -419 640 -71
16 -128 19 -340 19 -159 0 -294 -5 -358 -14 l-104 -13 63 -58 64 -57 240 5
c185 3 263 0 342 -12 192 -29 312 -87 352 -168 25 -53 26 -68 6 -135 -45 -150
-243 -357 -522 -544 -134 -90 -138 -92 -129 -48 9 50 -10 229 -35 323 -112
418 -439 730 -862 822 -87 19 -299 26 -380 14z m358 -177 c38 -18 41 -34 9
-43 -11 -3 -47 -35 -81 -72 -47 -53 -60 -73 -59 -97 1 -36 11 -40 26 -10 14
25 75 52 100 44 27 -8 60 -53 60 -80 0 -12 -9 -34 -20 -47 -14 -19 -18 -34
-14 -60 6 -31 3 -37 -27 -58 -19 -12 -67 -56 -107 -98 l-72 -75 30 -54 c44
-77 55 -139 39 -221 -7 -37 -21 -85 -32 -106 -20 -41 -57 -164 -57 -190 0 -8
9 -17 19 -21 10 -3 21 -15 24 -25 3 -13 14 -20 29 -20 58 0 395 62 436 80 25
11 47 18 49 16 10 -10 -10 -47 -32 -62 -22 -15 -423 -85 -840 -148 -93 -14
-182 -28 -197 -31 -19 -3 -28 0 -28 9 0 31 41 44 225 76 173 30 287 58 242 59
-30 1 -31 29 -3 91 15 33 32 88 38 122 6 35 19 80 29 100 32 63 26 86 -42 156
-46 46 -66 61 -80 57 -10 -4 -49 -40 -86 -81 -38 -41 -90 -89 -118 -107 -27
-17 -54 -37 -58 -44 -5 -8 -35 -44 -68 -80 -32 -37 -59 -74 -59 -83 0 -17 -78
-101 -129 -138 -17 -13 -61 -62 -98 -108 -65 -81 -94 -99 -101 -64 -1 9 33 60
77 115 44 55 82 111 85 125 3 14 40 63 82 110 42 47 89 105 104 128 15 24 49
60 76 81 37 28 59 57 94 122 25 47 57 101 72 121 14 19 33 51 41 70 14 34 14
37 -4 50 -19 12 -17 16 41 80 33 36 60 69 60 72 0 5 -54 36 -63 36 -13 0 -51
-69 -49 -90 1 -17 -7 -35 -24 -51 l-26 -24 -20 28 c-11 15 -24 27 -28 27 -5 0
-94 36 -197 80 -103 45 -196 79 -205 76 -28 -7 -24 49 4 68 30 21 41 20 35 -3
-4 -17 22 -30 194 -102 110 -45 201 -80 203 -78 2 2 18 32 35 67 18 35 39 66
47 69 11 4 -12 24 -75 64 -50 33 -98 59 -106 59 -18 0 -20 31 -3 48 18 18 56
15 54 -4 -1 -16 215 -163 240 -164 7 0 19 11 28 25 11 17 26 25 44 25 22 0 41
14 86 65 31 36 54 70 51 76 -8 12 33 59 51 59 8 0 29 -8 49 -17z"/>
<path d="M2850 1396 c-336 -155 -757 -301 -1144 -397 -88 -21 -161 -41 -163
-43 -7 -7 105 -46 192 -67 114 -29 323 -36 440 -16 261 46 498 178 664 370 49
57 141 188 141 201 0 11 -14 6 -130 -48z"/>
</g>
</svg>
