<?xml version="1.0" standalone="no"?>
<!DOCTYPE svg PUBLIC "-//W3C//DTD SVG 20010904//EN"
 "http://www.w3.org/TR/2001/REC-SVG-20010904/DTD/svg10.dtd">
<svg version="1.0" xmlns="http://www.w3.org/2000/svg"
 width="292.000000pt" height="117.000000pt" viewBox="0 0 292.000000 117.000000"
 preserveAspectRatio="xMidYMid meet">

<g transform="translate(0.000000,117.000000) scale(0.100000,-0.100000)"
fill="#000000" stroke="none">
<path d="M785 1148 c-2 -13 -45 -255 -95 -538 -50 -283 -93 -527 -96 -543 l-6
-27 314 0 c342 0 400 7 504 56 69 33 139 99 164 157 62 140 18 293 -100 349
l-52 25 56 27 c192 94 223 354 55 458 -77 48 -153 58 -461 58 l-278 0 -5 -22z
m462 -283 c49 -32 37 -106 -22 -130 -37 -16 -160 -20 -169 -6 -5 8 10 118 20
150 6 18 138 7 171 -14z m-75 -375 c42 -12 58 -34 58 -79 0 -60 -61 -91 -182
-91 -38 0 -68 3 -68 8 0 4 7 42 15 85 8 43 15 81 15 83 0 8 127 3 162 -6z"/>
<path d="M195 1128 c-3 -18 -48 -269 -99 -558 l-92 -525 179 -3 c99 -1 182 0
185 3 4 4 198 1073 202 1113 0 1 -83 2 -185 2 l-184 0 -6 -32z"/>
<path d="M1865 1148 c-12 -40 -125 -741 -125 -779 0 -94 49 -203 114 -252 161
-123 470 -143 675 -44 111 54 191 149 237 280 11 31 144 771 144 801 0 3 -80
5 -177 4 l-178 -3 -61 -335 c-34 -184 -66 -354 -73 -377 -32 -117 -181 -162
-268 -81 -12 11 -27 42 -33 68 -11 44 -6 79 45 367 31 175 59 328 62 341 l5
22 -181 0 c-137 0 -183 -3 -186 -12z"/>
</g>
</svg>
