<?xml version="1.0" standalone="no"?>
<!DOCTYPE svg PUBLIC "-//W3C//DTD SVG 1.1//EN" "http://www.w3.org/Graphics/SVG/1.1/DTD/svg11.dtd" >
<svg xmlns="http://www.w3.org/2000/svg">
<metadata>Generated by IcoMoon</metadata>
<defs>
<font id="icomoon" horiz-adv-x="1024">
<font-face units-per-em="1024" ascent="960" descent="-64" />
<missing-glyph horiz-adv-x="1024" />
<glyph unicode="&#x20;" horiz-adv-x="512" d="" />
<glyph unicode="&#xe9a;" glyph-name="user-check4" horiz-adv-x="1201" d="M493.807 958.094c-28.416-2.772-68.613-14.035-93.91-26.856-80.222-40.198-135.494-114.702-151.261-204.28-3.812-20.965-4.332-68.267-1.040-87.499 9.53-56.138 29.628-99.801 64.801-141.731 37.599-44.529 88.885-75.371 150.221-89.925 25.297-5.891 72.079-7.45 99.454-3.119 115.741 18.020 205.84 104.826 229.924 221.434 5.025 24.95 6.238 65.321 2.599 91.311-8.49 60.643-33.614 112.969-74.504 155.593-25.643 26.683-46.089 41.93-76.583 57.178-31.708 15.94-62.202 24.604-98.761 28.069-21.138 1.906-27.376 1.906-50.94-0.173zM889.719 466.886c-58.217-10.742-106.385-36.039-146.409-76.757-47.128-47.995-73.118-108.638-75.717-176.384-1.213-28.589 1.040-49.901 8.143-77.97 25.124-99.628 109.157-176.904 213.117-195.79 25.297-4.505 69.653-3.985 95.296 1.040 54.752 11.089 98.415 34.48 137.919 73.811 49.554 49.381 75.544 108.464 78.143 177.771 2.252 58.91-12.648 112.623-44.183 159.058-39.505 58.044-94.776 95.989-163.216 112.276-15.594 3.812-23.218 4.505-53.712 5.025-26.336 0.347-39.158-0.173-49.381-2.079zM1091.92 316.491c3.639-1.733 9.53-7.104 12.995-11.955 5.718-7.797 6.584-10.223 6.584-18.539v-9.53l-86.979-120.593c-56.831-78.663-88.539-121.113-91.484-122.499-13.861-6.411-21.312-0.347-68.613 55.098-64.108 75.197-90.271 106.385-95.989 114.355-6.584 9.010-6.931 10.049-6.931 22.698 0 11.782 0.52 13.688 4.851 19.579 7.45 9.703 17.153 15.421 27.896 16.287 13.861 1.040 20.272-1.733 29.975-13.341 11.262-13.515 90.445-105.865 94.083-109.85 2.772-3.119 5.718 0.693 63.415 81.435 33.094 46.435 62.722 86.979 65.668 90.098 8.837 9.010 14.208 11.089 26.856 10.569 6.238-0.347 14.208-2.079 17.673-3.812zM295.418 363.273c-49.727-18.539-92.697-41.93-133.415-72.598-19.579-14.728-63.935-59.603-78.489-79.356-51.113-69.306-78.489-148.662-82.821-240.146l-1.213-24.777h674.523l-14.728 16.98c-22.525 25.643-35.866 45.396-50.247 73.984-40.198 80.915-49.207 162.35-27.723 251.582 2.426 10.049 4.158 18.713 3.812 19.059s-8.317-0.347-17.673-1.386c-22.525-2.599-88.019-1.040-109.85 2.772-54.579 9.356-96.162 25.99-131.682 52.673-5.198 3.985-10.742 7.104-12.129 6.931-1.559 0-9.703-2.599-18.366-5.718z" />
<glyph unicode="&#xe9b;" glyph-name="exit2" d="M530.448 957.326c-27.004-5.615-47.858-18.715-60.691-38.5-23.795-35.827-23.795-76.198-0.267-110.421 35.827-52.136 118.709-52.136 154.536 0 23.528 34.222 23.528 74.594-0.267 110.421-4.813 7.486-13.636 16.844-19.25 20.854-21.122 14.705-52.136 22.191-74.060 17.646zM852.086 956.257c-27.004-9.892-47.591-32.351-68.712-75.129-34.222-70.316-60.157-179.935-68.445-289.287l-1.872-24.865h131.81v-224.585h-66.841c-36.629 0-66.841-0.535-66.841-0.802 0-0.535 1.872-20.052 4.010-43.58 17.913-190.63 66.841-326.183 128.869-357.732 11.229-5.615 36.094-5.615 47.056 0.267 47.858 24.597 86.626 104.539 111.223 229.397 18.715 94.112 22.458 147.584 20.854 298.11-1.069 129.136-2.406 148.119-15.507 227.258-14.705 89.032-42.778 172.716-72.188 215.762-25.667 37.163-57.75 54.542-83.417 45.184zM151.060 687.29l-80.209-80.209 44.115-44.115c24.33-24.33 45.184-44.115 46.789-44.115s29.677 27.004 62.83 60.157l60.157 60.157h27.271c15.24 0 27.538-0.802 27.538-1.872s-14.438-45.452-32.084-98.657c-19.517-58.552-33.153-104.004-34.49-114.699-5.080-43.848 12.833-88.497 45.986-113.362 7.754-5.882 52.403-34.222 99.459-63.098 47.056-29.143 85.823-52.938 86.091-53.205s-2.406-10.16-6.149-21.656c-17.646-56.681-65.237-226.991-65.237-233.408 0-2.406 17.379-3.208 64.969-3.208h65.237l3.208 10.16c5.347 17.111 82.348 287.415 84.219 295.971 2.139 9.625 11.229 2.674-102.667 74.327-37.431 23.528-68.445 43.045-68.98 43.313-0.802 0.802 55.344 151.327 57.216 153.466 0.267 0.535 15.507-28.608 33.688-64.969l32.886-65.771h183.144v128.334h-102.935l-44.65 89.299-44.917 89.299-32.618 13.368c-18.181 7.486-61.761 25.132-97.32 39.035l-64.434 25.667h-167.904l-80.209-80.209zM205.869 300.95c-9.090-18.983-17.646-37.431-18.983-40.639l-2.406-6.149h-184.48v-128.334l133.949 0.535 133.681 0.802 23.795 53.205c21.924 48.927 23.528 53.473 19.25 56.681-2.406 1.872-5.347 3.743-6.417 3.743s-10.695 7.219-21.656 15.774c-20.854 16.577-44.115 45.184-54.007 66.573l-6.149 12.566-16.577-34.757z" />
<glyph unicode="&#xe9c;" glyph-name="arrow-down-4" horiz-adv-x="1168" d="M41.396 936.47c-21.787-9.586-29.631-35.731-17.866-58.39 3.486-6.536 125.494-130.723 271.469-276.262 287.156-286.284 278.877-279.312 308.943-263.626 6.972 3.922 131.595 125.93 276.698 271.905 213.079 213.515 264.933 267.547 267.547 279.312 7.843 37.474-28.759 64.926-62.311 47.060-6.536-3.486-119.394-114.165-251.425-246.196-189.113-189.549-241.838-240.095-250.553-240.095s-61.44 50.546-249.682 238.788c-131.595 131.159-242.274 240.967-246.196 243.581-13.508 8.279-33.117 10.022-46.625 3.922zM41.396 570.444c-21.787-9.586-29.631-35.731-17.866-58.39 3.486-6.536 125.494-130.723 271.469-276.262 287.156-286.284 278.877-279.312 308.943-263.626 6.972 3.922 131.595 125.93 276.698 271.905 213.079 213.515 264.933 267.547 267.547 279.312 7.843 37.474-28.759 64.926-62.311 47.060-6.536-3.486-119.394-114.165-251.425-246.196-189.113-189.549-241.838-240.095-250.553-240.095s-61.44 50.546-249.682 238.788c-131.595 131.159-242.274 240.967-246.196 243.581-13.508 8.279-33.117 10.022-46.625 3.922z" />
<glyph unicode="&#xe001;" glyph-name="bell-5" horiz-adv-x="860" d="M376.832 929.28c-23.552-23.552-29.696-36.864-24.576-55.296 5.12-21.504 1.024-26.624-27.648-35.84-50.176-16.384-104.448-66.56-130.048-118.784-16.384-32.768-25.6-77.824-31.744-154.624-12.288-153.6-29.696-201.728-103.424-271.36-32.768-30.72-59.392-63.488-59.392-72.704 0-49.152 75.776-93.184 179.2-105.472 142.336-15.36 133.12-11.264 133.12-62.464 0-36.864 6.144-51.2 33.792-78.848 28.672-27.648 39.936-32.768 83.968-32.768s55.296 5.12 83.968 32.768c27.648 27.648 33.792 41.984 33.792 78.848 0 51.2-9.216 47.104 133.12 62.464 103.424 12.288 179.2 56.32 179.2 105.472 0 9.216-26.624 41.984-59.392 72.704-73.728 69.632-91.136 117.76-103.424 271.36-6.144 76.8-15.36 121.856-31.744 154.624-25.6 52.224-79.872 102.4-130.048 118.784-28.672 9.216-32.768 14.336-27.648 35.84 7.168 29.696-43.008 86.016-77.824 86.016-12.288 0-35.84-14.336-53.248-30.72zM462.848 911.872c34.816-31.744 16.384-74.752-32.768-74.752-48.128 0-66.56 37.888-33.792 73.728 20.48 22.528 41.984 23.552 66.56 1.024zM509.952 61.952c7.168-72.704-83.968-112.64-136.192-59.392-24.576 23.552-34.816 74.752-18.432 91.136 4.096 4.096 39.936 5.12 79.872 4.096l71.68-3.072 3.072-32.768z" />
<glyph unicode="&#xe002;" glyph-name="Mail-open" d="M486.116 950.898c-30.436-10.809-32.427-12.231-192.284-129.991-49.778-36.693-112.071-82.489-138.809-101.831-88.178-63.431-124.587-92.729-134.542-107.236-18.489-27.876-17.92-14.222-17.067-324.836l0.853-281.316 7.396-15.644c10.24-22.187 22.756-35.271 42.951-45.511l17.351-8.533h882.347l17.067 7.964c19.911 9.387 34.702 23.893 44.373 42.667l6.827 13.369 0.853 289.849 0.569 289.849-6.542 14.507c-3.698 7.964-10.24 18.773-14.791 23.893-7.68 9.102-64.853 53.476-136.533 106.382-20.48 14.791-83.627 61.44-140.8 103.253-155.022 114.347-171.52 124.587-205.653 128-11.093 1.138-19.342 0-33.564-4.836zM569.458 783.644c22.471-16.782 82.204-60.587 133.12-97.849 50.916-36.978 115.769-85.049 144.498-106.951l51.769-40.107-0.569-45.796-0.853-46.080-146.489-114.631c-93.013-72.533-153.884-118.044-166.4-124.587-48.924-25.031-107.52-22.756-152.462 5.973-7.111 4.551-77.938 58.88-157.013 120.604l-144.213 112.356v94.151l40.391 31.289c22.471 17.351 90.738 67.698 151.609 112.071 61.156 44.373 119.182 87.040 129.422 95.004s28.16 21.049 39.822 29.013c25.316 17.636 17.636 19.911 77.369-24.462z" />
<glyph unicode="&#xe003;" glyph-name="Watch" horiz-adv-x="1627" d="M738.233 957.619c-124.229-11.907-252.428-55.566-369.116-125.817-124.626-75.014-269.891-220.279-346.493-345.699l-23.417-38.102 23.417-38.102c51.994-85.333 161.141-207.975 243.299-273.067 84.143-66.679 197.259-129.389 287.355-158.76 141.296-46.437 293.705-54.375 438.971-22.623 122.642 26.989 257.588 93.271 366.735 180.192 94.065 74.617 191.305 183.764 248.856 279.417l20.242 32.943-23.417 38.102c-37.309 61.122-90.096 126.214-155.981 192.099-148.837 149.234-309.978 236.949-495.727 270.288-45.247 7.938-169.873 13.098-214.722 9.129zM888.26 759.566c115.895-27.386 208.769-120.657 237.743-239.33 9.526-38.896 8.335-112.719-1.984-152.409-14.685-54.772-44.453-106.369-84.143-146.059s-91.287-69.457-146.059-84.143c-39.69-10.319-113.513-11.51-152.409-1.984-107.163 26.195-194.878 105.178-229.805 206.388-64.298 186.94 50.803 384.595 245.681 421.507 35.721 6.747 92.874 5.16 130.977-3.969zM766.412 628.589c-91.684-25.798-150.028-113.91-136.533-206.388 17.86-125.42 152.806-196.465 266.319-140.899 30.164 15.082 65.488 48.819 80.967 77.792 18.654 34.53 27.783 90.89 19.448 120.26-2.381 8.732-2.778 8.732-12.304-5.953-32.943-50.406-107.56-53.978-146.456-6.747-24.211 29.371-26.592 73.426-5.953 107.163 9.129 14.288 17.464 21.829 36.118 31.752l24.608 12.701-18.654 6.35c-26.592 9.526-80.967 11.51-107.56 3.969z" />
<glyph unicode="&#xe004;" glyph-name="arrow-down1" d="M469.61 929.912c-26.597-2.494-68.821-10.639-91.429-17.621-14.13-4.322-41.226-13.964-48.54-17.288-3.823-1.829-7.481-3.158-7.979-3.158-2.161 0-38.566-18.784-54.026-27.927-36.405-21.278-65.662-44.052-97.413-75.803-52.696-52.862-89.766-110.878-115.366-181.361-11.304-30.587-20.447-68.987-25.268-105.558-2.66-20.779-2.826-98.909 0-119.688 14.961-112.042 62.005-208.125 140.634-286.919 93.756-93.59 214.109-143.46 346.431-143.626 113.039 0 217.434 36.239 306.369 106.556 21.444 16.79 59.844 55.19 76.634 76.301 71.481 90.431 107.886 194.161 107.886 307.532 0 131.99-50.369 253.34-143.792 346.764-78.13 77.964-174.712 125.673-284.426 140.301-18.286 2.494-89.434 3.491-109.714 1.496zM581.486 544.083l0.332-180.862 63.834-0.332 64-0.499-23.439-24.935c-12.966-13.631-32.914-35.075-44.384-47.377s-26.93-28.758-34.41-36.571c-7.314-7.813-24.436-26.099-38.068-40.727s-31.086-32.914-38.566-40.727l-13.797-14.13-12.135 12.468c-12.634 13.132-48.042 50.868-130.327 138.805l-49.87 53.195 63.834 0.499 63.668 0.332v180.031c0 99.075 0.499 180.696 1.164 181.195 0.665 0.665 29.59 0.997 64.332 0.831l63.335-0.499 0.499-180.696z" />
<glyph unicode="&#xe005;" glyph-name="arrow-down4" d="M476.279 955.634c-45.643-4.366-79.38-10.716-116.688-22.226-173.445-53.978-310.772-205.991-345.302-381.023-15.876-81.761-15.876-127.008 0-208.769 38.102-192.893 200.434-355.225 393.327-393.327 81.761-15.876 127.008-15.876 208.769 0 192.893 38.102 355.225 200.434 393.327 393.327 15.876 81.761 15.876 127.008 0 208.769-33.736 172.651-168.682 323.473-338.952 379.039-35.324 11.51-75.411 19.845-113.116 22.623-17.464 1.191-35.324 2.778-39.69 3.572s-23.020-0.397-41.674-1.984zM599.318 576.992v-156.775h89.699c49.216 0 88.905-1.588 88.112-3.175-2.381-5.557-261.557-252.825-265.129-252.825s-262.747 247.268-265.129 252.825c-0.794 1.588 38.896 3.175 88.112 3.175h89.699v313.55h174.636v-156.775z" />
<glyph unicode="&#xe006;" glyph-name="admin" d="M531.051 952.856c-2.977-4.167-10.716-23.219-16.074-42.27-5.358-18.456-14.288-36.316-19.647-39.293-5.358-2.381-25.6-6.549-44.651-8.335-38.102-3.572-35.721-5.358-69.656 42.27-21.433 29.767-35.721 31.553-80.372 10.716-46.437-21.433-48.819-26.791-36.316-76.205l10.716-41.674-16.67-17.86c-9.526-9.526-26.195-23.219-36.912-29.767l-19.647-11.907-36.316 16.074c-33.34 14.884-38.102 16.074-51.795 8.335-13.098-7.74-54.177-72.037-54.177-85.135 0-2.977 14.884-19.647 32.744-36.912 17.86-17.86 32.744-33.935 32.744-36.912 0-12.502-25.005-75.609-31.553-79.777-3.572-2.381-20.837-5.953-38.102-8.335-48.223-5.953-52.391-11.312-52.391-67.87s4.167-61.916 52.391-67.87c17.265-2.381 34.53-5.953 38.102-8.335 10.716-6.549 32.149-72.633 28.577-85.135-1.786-5.358-12.502-17.265-24.409-26.195-11.312-8.335-24.409-22.028-29.767-29.767-8.335-13.098-7.74-16.074 5.358-42.865 16.074-30.363 41.674-61.321 51.2-61.321 3.572 0 21.433 6.549 39.888 14.884s36.912 14.884 40.484 14.884c4.167 0 21.433-12.502 38.698-28.577l32.149-27.981-11.312-42.865c-12.502-50.009-11.312-52.986 35.126-76.205 44.651-22.028 60.13-20.242 81.563 10.121 33.935 47.628 31.553 45.842 69.656 42.27 19.051-1.786 39.293-5.953 44.651-8.335 5.358-2.977 14.288-20.837 19.647-39.293 5.358-19.051 13.098-38.102 16.074-42.27 11.907-14.288 101.805-4.763 112.521 11.907 2.977 4.167 5.358 23.814 5.358 43.46s2.381 38.698 4.763 42.27c5.953 8.93 63.702 38.102 76.205 38.102 5.358 0 22.623-10.716 38.102-23.814s33.935-23.814 40.484-23.814c13.693 0 69.060 41.674 78.586 59.535 6.549 12.502-0.595 32.744-24.409 66.679-6.549 8.335-11.312 19.051-11.312 23.219 0 8.335 35.126 65.488 44.651 72.037 2.977 2.381 23.814 2.977 45.842 0.595 28.577-2.381 42.865-1.191 49.414 4.167 11.907 10.121 33.935 82.158 29.172 97.042-2.381 6.549-19.051 18.456-41.674 28.577-21.433 9.526-38.102 21.433-38.698 26.195 0 4.763 0 22.623 0 38.698 0 16.67 0 33.935 0 38.698 0.595 4.763 17.265 16.67 38.698 26.195 22.623 10.121 39.293 22.028 41.674 28.577 4.763 14.884-17.265 86.921-29.172 97.042-6.549 5.358-20.837 6.549-49.414 4.167-22.028-2.381-42.865-1.786-45.842 0.595-9.526 6.549-44.651 63.702-44.651 72.037 0 4.167 4.763 14.884 11.312 23.219 23.814 33.935 30.958 54.177 24.409 66.679-9.526 17.86-64.893 59.535-78.586 59.535-6.549 0-25.005-10.716-40.484-23.814s-32.744-23.814-38.102-23.814c-12.502 0-70.251 29.172-76.205 38.102-2.381 3.572-4.763 22.623-4.763 42.27s-2.381 39.293-5.358 43.46c-10.716 16.67-100.614 26.195-112.521 11.907zM591.777 757.581c64.893-16.67 109.544-42.27 155.386-89.302 44.056-46.437 69.656-94.66 83.349-158.363 10.716-51.795 10.716-72.037 0-123.833-13.693-63.702-39.293-111.926-83.349-158.363-45.842-47.033-90.493-72.633-155.386-89.302-57.749-14.884-89.898-14.884-147.647 0-61.321 15.479-108.353 41.674-148.837 82.158-44.651 45.247-61.916 72.633-79.181 122.642-35.126 102.4-18.456 210.753 44.651 294.698 47.628 63.107 106.567 101.805 182.772 120.26 55.367 13.693 92.874 13.693 148.242-0.595zM421.507 662.326c-15.479-10.121-36.316-32.149-47.628-49.414-17.265-26.791-19.647-36.912-21.433-76.205-2.977-57.749 12.502-96.447 51.2-130.381 14.884-13.098 29.172-23.814 31.553-23.814 2.977 0 5.953-36.912 6.549-81.563 1.786-75.014 2.977-82.158 13.098-83.944 17.86-3.572 21.433 9.526 21.433 80.967v66.679h71.442v-64.893c0-72.633 2.381-83.944 17.86-83.944s17.86 11.312 17.86 92.874c0 40.484 2.381 73.823 4.763 73.823 2.977 0 16.67 10.121 30.958 22.028 79.181 67.87 70.251 200.037-17.265 257.786-16.074 11.312-33.34 17.86-42.27 16.67l-14.884-1.786-1.786-77.395c-1.786-74.419-2.381-77.991-16.67-88.112-13.693-10.121-14.884-10.121-28.577 0-14.288 10.121-14.884 13.693-16.67 88.112l-1.786 77.395-14.884 1.786c-8.93 1.191-26.195-5.358-42.865-16.67zM475.088 491.46c35.126-27.981 35.126-27.981 66.679-4.763l29.172 21.433 1.786 69.656 1.786 69.060 23.219-20.242c77.991-69.060 50.605-198.847-47.628-226.233-83.349-23.219-161.935 29.767-167.888 113.712-3.572 46.437 10.121 80.967 42.27 110.735l25.005 22.623 3.572-138.121 22.028-17.86zM497.712 331.312c-7.144-18.456-3.572-60.13 5.358-67.87 14.288-11.907 26.791 2.977 26.791 32.744 0 33.34-4.763 44.651-17.86 44.651-5.953 0-12.502-4.167-14.288-9.526z" />
<glyph unicode="&#xe007;" glyph-name="hour" horiz-adv-x="1022" d="M479.153 957.81c-23.775-1.773-56.31-6.569-81.857-12.2l-13.035-2.815-0.313-42.128c-0.104-23.254 0.209-42.649 0.73-43.171s3.233-0.209 6.465 0.73c24.505 6.987 63.088 13.765 87.593 15.329 20.647 1.356 63.088 0.73 80.189-1.147 46.82-5.005 101.149-21.585 145.988-44.422 56.31-28.676 108.552-72.16 146.301-122.108 48.176-63.609 77.165-137.75 85.403-218.252 1.877-18.978 1.668-64.756-0.626-83.63-11.888-102.921-55.58-192.704-127.948-263.091-66.007-64.13-150.889-104.694-246.407-117.52-13.973-1.877-22.002-2.294-48.593-2.294-34.099-0.104-47.446 1.043-76.122 6.257-146.405 26.799-267.992 125.654-322.737 262.152-38.27 95.309-40.459 202.193-6.257 298.441 20.751 58.187 54.745 114.079 92.494 152.14l11.783 11.888 0.313-65.903 0.209-66.007h84.464v253.393h-254.436v-83.422l7.091-0.104c3.858-0.104 23.462-0.417 43.588-0.834l36.601-0.626-13.869-17.623c-25.548-32.534-40.564-54.85-56.518-84.569-53.703-99.585-72.264-221.484-50.783-333.269 15.537-80.71 50.887-157.771 101.67-222.006 82.9-104.694 204.279-173.308 336.293-190.201 42.441-5.422 99.167-4.797 140.253 1.564 79.98 12.305 150.055 40.668 219.503 88.948 82.692 57.457 147.865 142.964 184.883 242.548 42.232 113.87 40.355 247.554-5.214 361.32-53.181 132.64-155.998 235.145-289.681 288.534-65.799 26.278-148.386 39.208-217.418 34.099zM469.351 610.985c0-145.049 0.521-174.038 3.233-179.148 3.65-6.882 21.064-25.026 98.75-103.026l80.815-81.023 29.51 29.406 29.51 29.51-158.501 158.501v279.984h-83.422l0.104-134.204z" />
<glyph unicode="&#xe008;" glyph-name="comment" horiz-adv-x="1197" d="M520.884 957.662c-120.402-11.456-236.595-49.797-324.5-106.842-32.731-21.509-55.876-40.212-83.229-67.332-63.357-63.357-97.958-128.117-109.414-205.268-10.521-69.669 3.741-142.846 39.744-205.501 26.886-46.758 72.942-98.192 119.233-133.026 88.606-66.63 203.397-110.816 330.579-127.182 39.744-5.143 131.156-7.247 170.199-3.741l31.094 2.805 25.016-20.106c79.021-63.591 162.484-106.842 258.805-134.663 44.186-12.858 83.229-20.807 102.166-20.807 20.106 0 34.133 18.469 29.224 38.108-1.637 6.78-10.287 18.002-31.795 42.082-52.369 58.915-63.357 74.345-81.826 115.492-11.222 24.782-23.613 59.149-23.613 64.994 0 1.637 7.481 7.481 16.599 12.858 27.821 16.599 70.137 49.797 95.386 75.047 86.502 86.502 124.376 188.668 108.712 293.64-11.456 77.151-45.823 141.911-109.414 205.268-89.542 89.308-222.1 149.626-376.636 170.9-32.029 4.208-152.665 6.546-186.331 3.273zM652.274 873.498c184.226-14.027 344.606-94.217 419.653-209.943 25.016-38.809 36.237-73.878 37.874-119.7 1.403-37.874-2.572-63.123-14.963-94.685-29.925-75.748-85.1-130.221-194.046-191.942-15.898-8.884-28.756-17.3-28.756-18.469 0-5.611 26.418-93.984 33.666-112.921 4.208-11.222 12.625-30.159 18.703-42.082 5.845-11.689 10.287-21.509 9.819-21.509s-11.923 5.143-25.016 11.222c-53.538 25.016-101.465 55.876-148.924 95.854-14.729 12.625-29.224 24.548-32.497 26.886-5.143 4.208-6.78 4.208-45.823 0.234-52.837-5.143-125.311-5.377-168.796 0-210.411 25.717-376.168 134.195-418.718 273.768-6.079 19.638-6.546 23.847-6.546 63.123 0 38.809 0.468 43.719 6.079 61.954 16.599 54.005 46.057 97.958 94.217 140.742 109.881 97.958 288.263 150.561 464.073 137.468z" />
<glyph unicode="&#xe009;" glyph-name="stop2" d="M512 960c-282.769 0-512-229.231-512-512s229.231-512 512-512 512 229.231 512 512-229.231 512-512 512zM735.391 304.499c0-44.518-36.088-80.606-80.603-80.606h-287.010c-44.515 0-80.603 36.088-80.603 80.606v287.003c0 44.518 36.088 80.606 80.603 80.606h287.010c44.515 0 80.603-36.088 80.603-80.606v-287.003z" />
<glyph unicode="&#xe010;" glyph-name="pause2" d="M511.998 960c-282.757 0-511.998-229.241-511.998-511.998 0-282.772 229.241-511.998 511.998-511.998 282.768 0 511.998 229.23 511.998 511.998 0.004 282.757-229.23 511.998-511.998 511.998zM424.344 258.618c0-44.444-29.432-80.423-65.75-80.423-36.307 0-65.75 35.98-65.75 80.423v327.583c0 44.406 29.44 80.423 65.75 80.423 36.318 0 65.75-36.017 65.75-80.423v-327.583zM731.171 258.618c0-44.444-29.462-80.423-65.75-80.423s-65.728 35.98-65.728 80.423v327.583c0 44.406 29.443 80.423 65.728 80.423 36.307 0 65.75-36.017 65.75-80.423v-327.583z" />
<glyph unicode="&#xe011;" glyph-name="stop3" d="M466 958c-178-17.2-334.2-124.4-412-283-32.2-65.4-47.2-121.2-52.4-194.6-4.8-67 6-143.8 29.4-207.6 10.8-29.4 36.8-80.8 54.2-106.8 122.2-183 343.2-267.8 555-213.2 36.2 9.2 60.6 18.4 96.8 36.2 51.4 25.2 88.6 51.4 130.6 92 92.2 89 145.6 204.4 154.8 334.4 4.8 67.2-6 144.4-29.4 207.8-10.6 28.8-36.6 80.6-52.8 104.8-40.6 61-94.8 114.4-155.2 152.8-22.6 14.4-71.8 38.8-97.8 48.2-27 10-69 20.6-100.2 25.2-30.2 4.6-92.4 6.4-121 3.8zM573.8 877c173.4-25.4 316.2-154 358.2-322.8 9.6-38.8 12.6-63.2 12.6-106.2s-3-67.4-12.6-106.2c-38-152.6-161.2-275.8-313.8-313.8-38.6-9.6-63.2-12.6-106.2-12.6s-66.8 2.8-106.4 12.6c-85.8 21.4-167.4 72.4-224 140-53.4 63.6-86.4 137.2-98.8 220-4.8 31.2-4.8 88.8 0 120 21.6 144 108 263.6 236.4 327.8 50.4 25.2 105.4 40.2 163.8 45 18.2 1.4 69-0.8 90.8-3.8zM342.2 638.8c-11.6-5.8-20.8-16.8-24.4-28.6-1.4-4.8-1.8-60.2-1.4-166.4l0.6-159.2 6-9.8c3.8-6 9.8-12 15.8-15.8l9.8-6 321.8-1 10.6 4.8c5.8 2.6 12.8 7.8 15.6 11.6 12 15.6 11.4 7.4 11.4 179.6s0.6 164-11.4 179.6c-2.8 3.8-9.8 9-15.4 11.6l-10.2 4.8h-318.2l-10.6-5.2z" />
<glyph unicode="&#xe012;" glyph-name="stop4" d="M1023.901-12.671c0-28.241-22.89-51.329-51.23-51.329h-921.441c-28.142 0-51.23 22.989-51.23 51.329v921.441c0 28.241 22.89 51.23 51.23 51.23h921.441c28.241 0 51.23-22.89 51.23-51.23v-921.441z" />
<glyph unicode="&#xe013;" glyph-name="pause3" d="M386.976 78.629c0-78.768-63.862-142.629-142.629-142.629v0c-78.768 0-142.629 63.862-142.629 142.629v738.742c0 78.768 63.862 142.629 142.629 142.629v0c78.768 0 142.629-63.862 142.629-142.629v-738.742zM922.26 78.629c0-78.768-63.862-142.629-142.629-142.629v0c-78.768 0-142.629 63.862-142.629 142.629v738.742c0.022 78.768 63.883 142.629 142.629 142.629v0c78.768 0 142.629-63.862 142.629-142.629v-738.742z" />
<glyph unicode="&#xe014;" glyph-name="play" horiz-adv-x="915" d="M84.196 955.904c-37.319-9.557-70.542-41.415-79.189-75.548-7.282-29.127-6.827-843.321 0.455-867.442 15.019-50.062 74.183-84.651 125.611-73.273 16.839 4.096 683.122 384.114 736.825 420.523 10.923 7.282 25.031 22.756 31.858 34.588 24.576 41.415 13.198 107.406-23.211 134.713-11.833 9.557-687.218 401.408-722.261 419.157-15.019 8.192-52.338 11.833-70.087 7.282z" />
<glyph unicode="&#xe015;" glyph-name="comment2" horiz-adv-x="1197" d="M520.884 957.662c-120.402-11.456-236.595-49.797-324.5-106.842-32.731-21.509-55.876-40.212-83.229-67.332-63.357-63.357-97.958-128.117-109.414-205.268-10.521-69.669 3.741-142.846 39.744-205.501 26.886-46.758 72.942-98.192 119.233-133.026 88.606-66.63 203.397-110.816 330.579-127.182 39.744-5.143 131.156-7.247 170.199-3.741l31.094 2.805 25.016-20.106c79.021-63.591 162.484-106.842 258.805-134.663 44.186-12.858 83.229-20.807 102.166-20.807 20.106 0 34.133 18.469 29.224 38.108-1.637 6.78-10.287 18.002-31.795 42.082-52.369 58.915-63.357 74.345-81.826 115.492-11.222 24.782-23.613 59.149-23.613 64.994 0 1.637 7.481 7.481 16.599 12.858 27.821 16.599 70.137 49.797 95.386 75.047 86.502 86.502 124.376 188.668 108.712 293.64-11.456 77.151-45.823 141.911-109.414 205.268-89.542 89.308-222.1 149.626-376.636 170.9-32.029 4.208-152.665 6.546-186.331 3.273zM652.274 873.498c184.226-14.027 344.606-94.217 419.653-209.943 25.016-38.809 36.237-73.878 37.874-119.7 1.403-37.874-2.572-63.123-14.963-94.685-29.925-75.748-85.1-130.221-194.046-191.942-15.898-8.884-28.756-17.3-28.756-18.469 0-5.611 26.418-93.984 33.666-112.921 4.208-11.222 12.625-30.159 18.703-42.082 5.845-11.689 10.287-21.509 9.819-21.509s-11.923 5.143-25.016 11.222c-53.538 25.016-101.465 55.876-148.924 95.854-14.729 12.625-29.224 24.548-32.497 26.886-5.143 4.208-6.78 4.208-45.823 0.234-52.837-5.143-125.311-5.377-168.796 0-210.411 25.717-376.168 134.195-418.718 273.768-6.079 19.638-6.546 23.847-6.546 63.123 0 38.809 0.468 43.719 6.079 61.954 16.599 54.005 46.057 97.958 94.217 140.742 109.881 97.958 288.263 150.561 464.073 137.468zM288.731 617.732c-32.263-7.715-58.681-32.029-67.565-62.188-14.261-47.927 18.937-97.023 72.709-107.543 47.693-9.352 95.854 18.469 109.18 63.123 18.937 63.357-45.589 123.441-114.323 106.608zM562.265 617.732c-32.263-7.715-58.681-32.029-67.565-62.188-14.261-47.927 18.937-97.023 72.709-107.543 47.693-9.352 95.854 18.469 109.18 63.123 18.937 63.357-45.589 123.441-114.323 106.608zM835.799 617.732c-32.263-7.715-58.681-32.029-67.565-62.188-14.261-47.927 18.937-97.023 72.709-107.543 47.693-9.352 95.854 18.469 109.18 63.123 18.937 63.357-45.589 123.441-114.323 106.608z" />
<glyph unicode="&#xe016;" glyph-name="settings4" horiz-adv-x="1020" d="M591.29 953.625c-24.704-11.953-38.251-31.477-51.798-72.517l-12.352-38.649-30.282-2.391c-16.336-1.594-37.852-3.586-47.813-5.18l-17.93-2.789-14.742 27.891c-22.711 43.032-51.001 64.149-86.064 64.149-12.75 0-76.9-31.079-94.033-45.423-15.938-13.547-27.094-44.626-23.508-66.54 1.195-8.766 9.164-29.086 17.133-45.423l14.742-29.485-19.922-21.118c-10.758-11.555-24.704-27.493-30.68-35.461l-10.758-14.742-36.657 11.555c-46.219 14.742-70.525 14.742-93.236 1.594-21.914-12.75-31.477-26.696-43.829-62.556-16.735-49.805-10.758-87.658 18.328-111.963 6.375-5.578 29.485-15.938 51.399-23.11l39.047-12.75 2.391-38.251c1.195-21.118 3.586-43.43 4.781-50.204 2.391-11.555 1.594-12.352-22.711-24.305-33.071-16.336-48.61-29.883-58.571-50.602-13.547-28.289-11.156-46.618 12.75-92.439 18.727-35.86 22.711-41.040 40.641-51.001 27.891-15.539 54.188-13.149 94.83 7.969l29.485 15.539 27.891-24.305c15.141-13.149 32.672-27.493 38.251-31.875l10.758-7.969-11.953-37.852c-6.375-20.321-11.953-44.227-11.953-52.595 0-21.914 14.742-49.805 33.071-63.353 15.938-11.555 71.321-31.477 87.259-31.477 17.93 0 40.641 10.36 57.376 25.5 15.141 13.946 19.524 21.914 31.079 56.181l13.149 39.844 33.469 2.391c18.328 1.594 39.844 3.586 47.415 5.18l13.946 2.789 15.938-30.68c16.735-32.274 34.266-49.009 60.563-57.774 21.516-6.774 40.243-2.391 79.29 18.727 46.219 25.5 59.368 43.032 59.368 78.892 0 21.118-2.391 29.485-15.539 54.985l-15.539 30.282 21.516 25.102c11.953 13.946 25.5 30.68 29.883 37.454l8.766 11.555 35.86-10.758c43.829-13.149 68.134-13.547 91.244-2.391 22.313 10.758 34.665 27.493 47.016 63.353 12.352 36.258 12.75 63.353 1.594 86.462-11.555 23.907-27.094 34.266-71.321 48.61l-38.251 12.352-4.383 47.016c-2.391 25.5-3.586 47.813-2.391 49.805 0.797 1.594 12.75 8.367 26.297 15.141 29.485 14.742 41.040 24.704 51.001 44.227 12.75 24.704 9.961 49.805-8.766 88.056-25.899 52.196-45.024 67.735-82.478 67.735-17.133 0-28.289-3.188-52.595-15.141l-31.079-15.141-25.5 22.711c-13.547 12.75-29.883 25.899-35.86 29.485-6.375 3.586-11.156 7.57-11.156 9.164s5.578 19.922 11.953 41.438c13.547 44.626 14.344 49.805 5.977 74.509-9.563 27.094-30.282 44.626-67.735 56.579-35.86 11.555-65.743 13.149-84.072 3.984zM567.384 667.144c97.619-25.5 166.549-114.752 166.549-215.16-0.398-65.345-20.321-113.556-66.54-159.377-86.861-87.259-223.128-87.259-311.184 0-58.571 57.774-80.087 132.682-60.563 213.167 17.532 72.517 85.267 141.447 158.979 160.971 28.688 7.57 84.072 7.969 112.76 0.398zM484.109 550.002c-27.493-6.774-55.384-28.688-68.532-53.79-3.586-6.774-7.172-25.102-8.367-40.641-2.789-45.024 16.336-79.29 55.782-98.814 50.602-25.5 111.963-4.383 139.854 47.415 11.156 21.118 11.953 69.329 1.594 88.853-25.102 46.219-72.517 68.532-120.33 56.977z" />
<glyph unicode="&#xe017;" glyph-name="save" d="M103.728 956.017c-19.418-6.141-35.848-20.414-44.478-38.67l-5.311-11.286-0.498-455.24-0.332-455.074 3.485-10.29c5.809-17.426 20.58-34.687 35.35-41.325 19.584-8.63-4.481-8.132 420.388-8.132 280.978 0 396.157 0.498 402.464 1.826 22.903 4.813 44.976 22.405 53.109 42.819l3.817 9.294v685.433l-5.145 10.788c-3.153 6.805-10.456 16.762-19.252 26.554-7.8 8.63-27.882 31.035-44.644 49.955-176.254 196.834-161.151 180.735-177.25 188.701l-12.447 6.141-31.201 0.498-31.201 0.664v-176.586c0-195.672 0.332-187.374-10.954-208.949-7.302-13.941-23.069-29.21-37.508-36.512-19.584-9.958-16.43-9.792-197.332-9.792-159.326 0-165.798 0.166-178.080 3.319-7.136 1.826-16.762 5.311-21.409 7.8-11.618 6.307-27.384 22.405-33.857 34.687-10.954 20.58-10.456 11.452-10.456 207.621v178.080l-25.227-0.166c-15.601 0-27.882-0.83-32.031-2.158zM831.979 443.851c11.286-4.315 24.065-17.26 28.712-29.044 2.987-7.966 3.153-14.439 3.153-181.731v-173.433l-4.315-9.128c-5.145-10.788-13.775-20.082-23.567-25.393l-6.971-3.651-595.48-0.83-8.464 3.817c-12.115 5.477-20.082 13.111-25.393 24.065l-4.647 9.46-0.498 173.765-0.332 173.599 3.485 9.626c4.315 11.452 13.775 21.409 26.388 27.716l8.962 4.481h295.085c292.263 0 295.085 0 303.881-3.319zM240.648 316.888v-37.342h577.556v74.684h-577.556v-37.342zM240.648 154.243v-37.342h577.556v74.684h-577.556v-37.342zM194.51 791.214l0.498-167.292 4.481-11.452c10.954-28.38 34.687-48.794 62.569-54.104 11.949-2.158 268.696-2.324 280.812 0 22.903 4.315 48.628 23.401 58.253 43.483 9.958 20.414 9.626 13.775 9.626 192.519v163.973h-416.736l0.498-167.126z" />
<glyph unicode="&#xe018;" glyph-name="Ok2" horiz-adv-x="1627" d="M1469.718 956.031c-35.721-7.541-34.53-6.747-331.014-273.86-42.468-38.499-157.172-141.693-255.603-230.202-98.034-88.112-195.671-175.429-216.31-194.084-20.639-19.051-40.484-36.515-44.453-39.293-6.35-5.16-42.071 25.798-350.462 304.422-78.189 70.648-91.684 77.792-142.884 77.792-30.958-0.397-38.499-1.984-56.36-11.113-29.767-15.479-45.643-30.958-58.344-56.757-9.526-19.448-11.113-26.195-9.526-48.819 1.588-29.371 10.716-50.803 28.577-69.457 9.922-9.922 202.022-182.971 468.738-421.904 41.674-37.309 59.138-47.231 92.081-53.184 30.164-5.16 63.107 0.397 88.905 15.082 10.319 6.35 77.395 63.901 149.234 128.198 234.567 211.15 365.941 329.029 540.974 486.202 94.859 85.333 183.367 164.713 196.862 176.62 50.009 45.247 65.091 82.158 51.2 128.992-8.732 29.767-41.278 63.901-71.839 74.617-25.005 8.732-57.55 11.51-79.777 6.747z" />
<glyph unicode="&#xe019;" glyph-name="save2_2x_1" d="M76.936 957.821c-13.481-2.451-30.638-10.349-42.213-19.609-18.247-14.434-29.413-35.132-33.362-61.277-1.089-7.353-1.362-128.272-1.089-435.745 0.409-405.379 0.545-425.94 2.86-433.702 1.362-4.494 5.038-13.345 8.034-19.745 4.494-9.396 7.626-13.617 16.613-22.468 17.974-17.702 33.226-24.919 59.37-27.779 10.757-1.226 116.698-1.498 433.702-1.226 397.617 0.409 419.949 0.545 429.481 2.86 34.179 8.306 60.051 33.77 69.991 68.63l2.996 10.621 0.409 377.191 0.272 377.055-187.234 187.37h-91.915v-137.804c0-84.289-0.545-141.617-1.362-147.336-2.587-17.157-14.026-31.728-29.413-37.447-7.353-2.86-8.851-2.86-225.906-2.86-216.783 0-218.553 0-225.906 2.723-9.94 3.813-20.017 13.481-24.919 23.83l-3.813 8.17-0.409 145.43-0.272 145.294-72.579-0.136c-55.966-0.136-74.894-0.545-83.336-2.043zM760.102 400.204c20.97-4.221 37.855-13.345 51.472-27.915 14.162-15.115 21.923-31.183 24.511-51.2 0.681-5.719 1.362-70.4 1.362-150.468v-140.664h-650.894l0.272 148.834 0.409 148.698 3.813 10.485c11.983 32.545 35.404 53.651 67.677 61.14 9.532 2.179 27.506 2.315 252.187 2.451 167.081 0.136 244.153-0.272 249.191-1.362zM558.57 843.983l0.409-116.153 46.026-0.409 45.889-0.272-0.272 116.017-0.409 116.153-46.026 0.409-45.889 0.272 0.272-116.017z" />
<glyph unicode="&#xe020;" glyph-name="to-top2-1" horiz-adv-x="1652" d="M775.745 953.546c-12.477-3.442-30.978-11.187-40.874-17.64-10.326-6.024-172.531-165.217-360.982-354.097-391.099-391.099-367.435-363.133-367.435-434.985 0-57.654 9.896-77.876 67.98-136.39 49.909-51.2 79.166-68.41 121.331-72.713 29.687-3.012 71.852 6.024 96.376 20.652 8.605 4.733 132.087 125.203 274.931 267.617l259.012 258.582 259.442-258.582c142.413-142.413 265.896-262.454 274.071-267.617 24.955-14.629 63.247-23.664 89.923-21.082 47.328 4.303 70.131 16.78 121.331 66.259 61.956 59.805 74.864 84.329 74.864 141.123 0 70.561 28.827 37.002-369.156 435.415-398.844 399.274-370.877 375.18-441.439 378.192-24.094 1.291-44.746-0.43-59.375-4.733z" />
<glyph unicode="&#xe021;" glyph-name="view-more3" horiz-adv-x="1029" d="M470.79 953.257c-175.579-15.235-331.926-121.381-411.848-279.727-89.413-177.327-65.686-391.867 60.441-545.967 19.98-23.977 64.687-67.184 88.414-84.917 70.431-52.449 149.604-85.167 237.019-97.904 34.966-4.995 103.649-4.995 139.863 0.25 123.879 17.233 244.761 85.167 322.935 181.573 27.223 33.717 44.706 61.19 64.187 100.402 58.193 118.135 67.434 251.504 25.725 378.38-52.699 160.843-183.571 285.471-347.66 331.177-54.447 15.235-123.38 21.479-179.075 16.734zM590.174 820.386c136.117-28.972 243.013-123.879 286.47-254.252 43.957-132.62 11.739-276.98-84.168-378.131-81.42-85.417-192.812-128.874-306.7-119.633-54.697 4.496-100.152 17.733-148.355 42.708-156.098 80.921-236.269 257.998-193.561 428.082 25.725 102.65 93.159 189.565 188.316 242.763 32.219 18.232 82.669 35.216 123.629 41.959 32.468 5.245 101.9 3.497 134.369-3.497zM488.273 695.508c-13.237-5.994-25.725-18.732-32.219-32.718-4.745-10.49-5.245-16.484-5.994-81.67l-0.749-70.681h-69.182c-74.427-0.25-80.172-0.999-96.656-13.487-21.229-16.234-29.471-48.453-18.732-73.428 2.997-6.993 9.99-16.983 15.485-21.979 18.732-16.734 20.48-17.233 98.654-17.982l70.181-0.749 0.999-70.431c0.749-67.934 0.999-70.931 6.743-82.42 11.739-23.477 39.711-39.212 64.687-35.715 14.236 1.998 34.466 12.987 41.959 22.728 12.987 16.983 13.487 20.98 13.487 95.906v69.682l71.93 0.999c69.182 0.749 72.18 0.999 83.419 6.494 39.461 19.481 48.453 71.18 17.733 101.9-16.983 17.233-16.983 16.983-98.154 18.482l-73.678 1.249-1.249 73.678c-1.249 71.43-1.499 73.928-6.993 82.919-6.993 11.489-21.229 23.977-31.969 28.472-11.988 4.995-37.713 4.246-49.701-1.249z" />
<glyph unicode="&#xe022;" glyph-name="view-more2" d="M488.4 959.44c-51.52-2.96-90.88-10.24-136.4-25.2-112.32-36.88-207.84-111.2-272.16-211.84-40.16-62.96-66.48-136.16-75.76-210.8-2.88-22.88-3.6-36.32-3.6-64 0-27.52 0.64-39.84 3.6-63.2 18.48-149.44 102.64-283.52 229.92-366.16 98.64-64 216.48-91.84 334.8-78.96 94.16 10.24 185.2 47.68 260.4 107.040 37.84 29.92 73.68 67.68 101.28 106.88 52.96 75.2 83.84 160.64 92.080 254.8 1.52 17.44 1.28 65.68-0.4 84-9.44 101.68-46 193.92-108 272.8-97.44 123.84-247.76 196.32-404.56 195.040-9.44-0.080-18.96-0.24-21.2-0.4zM516.56 713.6c5.68-1.28 10.8-5.36 13.52-10.96l2.32-4.64 0.24-114.56 0.16-114.64 119.84-0.16c119.52-0.24 119.76-0.24 123.36-1.92 16.24-7.52 16.24-29.92 0-37.44-3.6-1.68-3.84-1.68-123.36-1.92l-119.84-0.16-0.16-125.040c-0.24-141.92 0.48-128.48-7.2-135.36-4.24-3.84-7.76-5.2-13.44-5.2s-9.2 1.36-13.44 5.2c-7.68 6.88-6.96-6.56-7.2 135.36l-0.16 125.040-119.84 0.16c-119.52 0.24-119.76 0.24-123.36 1.92-16.24 7.52-16.24 29.92 0 37.44 3.6 1.68 3.84 1.68 123.36 1.92l119.84 0.16 0.16 114.64 0.24 114.56 2.32 4.64c3.28 6.72 9.92 11.2 17.44 11.68 0.72 0.080 3.12-0.32 5.2-0.72z" />
<glyph unicode="&#xe023;" glyph-name="view-more" d="M459.706 955.405c-174.605-19.474-326.455-125.593-402.817-280.944-36.978-75.487-52.732-142.66-52.513-226.462 0-84.021 15.535-150.974 52.513-226.462 39.822-81.176 101.087-150.099 177.887-200.424 137.846-90.366 313.326-107.87 465.614-46.605 148.568 59.515 261.032 184.889 302.824 337.176 13.785 50.106 17.285 76.8 17.504 133.032 0 56.889-0.875 62.14-14.222 74.174-20.13 18.161-50.106 13.347-63.453-10.065-5.032-9.19-5.251-10.503-4.814-48.793 0.656-45.074-2.844-77.019-12.472-115.091-38.947-153.819-156.882-271.754-310.701-310.263-48.793-12.472-116.185-15.754-164.321-8.096-145.285 22.756-268.034 115.309-326.236 246.373-26.256 59.077-37.415 111.371-37.415 176.137 0.219 152.287 77.894 287.945 210.051 366.715 97.805 58.202 223.179 74.174 331.925 42.448 23.85-7.002 38.509-6.564 50.325 1.313 9.19 6.345 18.598 23.631 18.598 34.571-0.219 10.721-6.783 24.287-15.097 31.508-10.284 8.533-46.168 18.817-94.304 26.913-24.944 4.157-102.619 5.908-128.875 2.844zM484.868 662.427c-80.301-10.065-160.164-55.138-235.651-132.595-26.038-27.132-49.45-55.576-53.826-65.86-3.72-8.971-3.72-22.974 0-31.945 7.658-17.942 60.171-75.268 97.805-106.995 39.166-32.821 89.272-63.015 128-76.8 58.639-20.786 123.405-20.786 181.607 0 69.579 25.162 152.725 88.397 208.957 159.289 15.754 20.13 19.692 28.007 19.692 40.479s-3.938 20.349-19.692 40.479c-58.202 73.299-142.66 136.752-213.552 160.383-36.54 12.253-80.957 17.504-113.34 13.566zM555.542 574.687c31.726-8.096 68.704-26.694 102.4-52.075 23.631-17.504 77.238-69.579 77.238-74.612 0-5.251-54.044-57.326-77.019-74.393-53.169-39.385-98.68-57.326-146.161-57.326-47.262 0-94.304 18.379-145.942 57.108-23.193 17.285-77.238 69.361-77.238 74.393 0 3.938 45.292 49.45 64.547 65.203 17.723 14.441 46.168 33.039 64.766 42.448 48.793 24.506 92.335 30.632 137.409 19.255zM504.342 518.236c-9.846-4.157-12.691-10.503-13.785-29.538l-0.875-18.379-18.598-0.875c-16.41-0.875-19.036-1.532-24.287-6.783-8.096-8.315-8.096-21.005 0-29.32 5.251-5.251 7.877-5.908 24.287-6.783l18.598-0.875 0.875-18.598c0.875-16.41 1.532-19.036 6.783-24.287 4.376-4.376 8.096-5.908 14.66-5.908s10.284 1.532 14.66 5.908c5.251 5.251 5.908 7.877 6.783 24.287l0.875 18.598 18.598 0.875c16.41 0.875 19.036 1.532 24.287 6.783 4.376 4.376 5.908 8.096 5.908 14.66s-1.532 10.284-5.908 14.66c-5.251 5.251-7.877 5.908-24.287 6.783l-18.598 0.875-0.875 18.598c-0.875 15.754-1.75 19.036-6.345 23.631-5.908 5.908-16.191 8.533-22.756 5.689z" />
<glyph unicode="&#xe024;" glyph-name="male102" d="M455.805 952.507c-61.815-7.493-149.229-36.839-202.927-68.683-56.82-33.093-143.61-119.883-176.702-176.702-53.073-91.161-80.546-212.917-68.683-310.946 7.493-66.185 36.215-151.727 68.683-207.298 33.093-56.82 119.883-143.61 176.702-176.702 91.161-53.073 212.917-80.546 310.946-68.683 66.185 7.493 151.727 36.215 207.298 68.683 56.82 33.093 143.61 119.883 176.702 176.702 53.073 91.161 80.546 212.917 68.683 310.322-7.493 66.81-36.215 152.351-68.683 207.298-33.717 56.82-102.4 128.624-159.844 166.088-94.907 62.439-224.156 93.659-332.176 79.922zM618.771 863.22c118.010-29.971 223.532-115.512 276.605-224.78 32.468-65.561 43.707-114.888 43.707-190.439 0-73.054-11.239-123.629-40.585-185.444-21.229-44.332-76.176-117.385-104.898-137.99l-18.732-13.737-48.702 21.854c-26.849 12.488-52.449 26.849-56.195 32.468-13.112 17.483-9.99 58.068 6.868 79.298 8.117 10.615 20.605 31.844 28.722 47.454 7.493 15.61 22.478 36.839 32.468 47.454 24.976 26.224 32.468 62.439 21.229 97.405-4.995 14.985-10.615 58.693-13.112 97.405-5.62 98.654-23.102 151.102-54.946 162.966-10.615 4.371-17.483 16.859-28.098 53.698l-14.361 48.702-73.054-3.746c-155.473-8.117-239.766-48.702-276.605-132.371-10.615-23.102-15.61-53.698-21.229-121.756-4.371-49.951-10.615-98.654-14.361-108.020-11.239-26.849-2.498-65.561 20.605-91.161 11.239-12.488 26.849-34.966 34.341-50.576 8.117-15.61 20.605-36.839 28.722-47.454 14.985-18.732 19.356-51.824 11.239-74.302-3.746-9.366-94.283-59.317-108.020-59.317-12.488 0-83.044 78.049-106.146 117.385-101.151 171.083-74.302 382.751 65.561 521.99 107.395 108.020 261.62 150.478 408.976 113.015zM439.571 609.717c48.078-8.117 139.863-4.371 169.21 6.868 16.859 6.244 19.98 5.62 35.59-11.863 19.356-21.854 34.966-68.683 40.585-122.38 1.873-20.605 7.493-43.083 11.863-49.951 13.112-18.732 10.615-43.083-6.868-59.317-8.741-8.117-22.478-29.346-30.595-48.078-27.473-59.317-109.268-132.995-147.356-132.995-37.463 0-120.507 74.927-147.356 132.995-8.117 18.732-21.854 39.961-30.595 48.078-17.483 16.234-19.98 40.585-6.868 59.317 4.371 6.868 9.99 36.215 11.863 65.561 4.995 76.176 25.6 128.624 47.454 122.38 5.62-1.873 29.346-6.244 53.073-10.615zM460.176 145.795c38.088-19.356 99.902-9.99 134.244 19.356 9.366 8.117 10.615 5.62 14.361-30.595 6.868-62.439 3.746-74.302-21.854-83.668-28.098-9.99-121.756-9.99-149.854 0-25.6 9.366-28.722 21.229-21.854 83.668 3.746 36.215 4.995 38.712 14.361 30.595 6.244-4.995 19.356-13.737 30.595-19.356z" />
<glyph unicode="&#xe025;" glyph-name="famale102" d="M455.805 952.507c-61.815-7.493-149.229-36.839-202.927-68.683-56.82-33.093-143.61-119.883-176.702-176.702-53.073-91.161-80.546-212.917-68.683-310.946 7.493-66.185 36.215-151.727 68.683-207.298 33.093-56.82 119.883-143.61 176.702-176.702 91.161-53.073 212.917-80.546 310.946-68.683 66.185 7.493 151.727 36.215 207.298 68.683 56.82 33.093 143.61 119.883 176.702 176.702 53.073 91.161 80.546 212.917 68.683 310.322-7.493 66.81-36.215 152.351-68.683 207.298-33.717 56.82-102.4 128.624-159.844 166.088-94.907 62.439-224.156 93.659-332.176 79.922zM618.771 863.22c148.605-38.088 268.488-157.971 309.073-309.073 14.985-54.946 14.985-157.971 0-212.293-21.854-81.171-81.795-176.702-137.366-219.785l-21.854-17.483-62.439 22.478-63.063 22.478v29.346c0 28.098 1.249 29.346 32.468 47.454 41.21 24.351 110.517 91.785 132.995 129.873 15.61 27.473 16.859 33.717 13.112 69.932-10.615 104.273-59.317 224.156-116.761 286.595-22.478 24.351-46.205 41.834-79.298 58.068-45.58 23.102-49.951 23.727-113.015 23.727-59.941 0-69.307-1.873-101.776-17.483-63.063-31.22-117.385-108.020-164.839-232.898-15.61-42.459-43.083-99.902-59.317-126.127-8.117-12.488-6.868-17.483 9.99-49.327 23.727-45.58 89.288-110.517 142.361-141.737 41.21-23.727 41.834-24.351 41.834-50.576v-26.849l-63.063-22.478-62.439-22.478-21.854 17.483c-31.844 24.351-86.79 96.156-108.020 140.488-78.673 165.463-45.58 358.4 84.293 487.649 107.395 108.020 261.62 150.478 408.976 113.015zM581.307 585.366c6.244 0 19.98 7.493 30.595 16.234 10.615 9.366 20.605 14.985 23.102 13.112 6.868-7.493 26.849-89.288 30.595-129.249 2.498-22.478 8.117-46.205 12.488-53.073 13.737-19.356 10.615-44.332-6.868-58.068-8.741-6.868-21.229-26.224-28.722-42.459-27.473-64.312-96.156-133.62-131.746-133.62-19.356 0.624-69.307 38.088-93.034 70.556-10.615 14.361-26.224 41.21-34.966 59.941-8.117 18.732-21.854 39.337-30.595 45.58-17.483 13.737-19.98 39.961-5.62 58.693 4.995 6.244 9.366 24.351 9.366 40.585 0 27.473 0.624 28.722 29.971 42.459 46.205 22.478 108.020 65.561 138.615 97.405l28.098 28.722 8.741-28.722c6.244-19.356 12.488-28.098 19.98-28.098zM512 135.805c9.366 0 29.971 6.868 46.205 15.61l28.722 14.985v-58.068c0-68.059 2.498-66.185-74.927-66.185s-74.927-1.873-74.927 66.185v58.068l28.722-14.985c16.234-8.741 36.839-15.61 46.205-15.61z" />
<glyph unicode="&#xe026;" glyph-name="time-edit" d="M739.805 915.673l-41.802-41.802 15.15-9.258c80.237-50.499 159.351-127.93 209.008-203.958 8.416-12.905 15.991-23.285 17.113-23.285s19.919 17.955 41.802 40.118l39.838 39.838-2.805 29.458c-9.539 92.3-42.363 150.935-100.717 178.99-34.788 16.552-64.807 24.127-120.636 30.019l-15.43 1.683-41.521-41.802zM364.432 540.3c-145.604-145.604-263.996-265.118-263.435-265.679 0.842-0.561 14.027-9.258 29.458-19.358 76.028-50.499 145.604-120.355 194.7-195.261l15.15-23.285 529.113 528.833-12.625 24.408c-33.385 64.526-92.020 130.735-154.021 173.379-18.236 12.625-58.915 36.191-69.015 40.118-3.086 1.122-78.834-72.662-269.326-263.154zM15.991 191.86l-13.186-13.466v-239.588h240.149l27.774 28.335-13.466 25.81c-7.294 14.308-21.883 37.874-32.263 52.462-24.127 34.227-81.639 91.739-115.025 115.025-26.933 19.077-71.82 44.888-77.431 44.888-1.964 0-9.258-6.172-16.552-13.466z" />
<glyph unicode="&#xe027;" glyph-name="nickname" d="M415.027 433.050c0-53.555 43.418-96.973 96.973-96.973s96.973 43.418 96.973 96.973c0 53.555-43.418 96.973-96.973 96.973s-96.973-43.418-96.973-96.973zM318.362 154.931c0 90.214 86.63 193.638 193.638 193.638s193.638-103.322 193.638-193.638c0-144.486-387.277-144.486-387.277 0zM512 631.91c-189.338 0-342.835-153.498-342.835-342.835s153.498-342.835 342.835-342.835 342.835 153.498 342.835 342.835c0 189.338-153.498 342.835-342.835 342.835zM512-10.854c-165.581 0-299.93 134.246-299.93 299.93s134.349 299.93 299.93 299.93c165.683 0 299.93-134.246 299.93-299.93s-134.246-299.93-299.93-299.93zM788.275 760.73c-58.778-88.883-61.85-99.84-61.85-211.149l-219.034-1.536-218.419 1.536c0 111.309-2.97 122.266-61.85 211.149 25.395-28.877 72.294-91.648 123.392-91.648 95.334 0 150.733 132.608 156.877 201.626v12.698c0-2.662 0.614-2.662 0.614 0v-12.595c6.246-69.12 61.542-201.626 156.877-201.626 51.098 0 98.099 62.669 123.392 91.546zM811.725 814.285c-13.21 0-23.962-10.752-23.962-23.962s10.752-23.859 23.962-23.859c13.21 0 23.962 10.65 23.962 23.859-0.102 13.21-10.854 23.962-23.962 23.962zM236.237 790.323c0 13.21-10.65 23.962-23.859 23.962s-23.962-10.752-23.962-23.962c0-13.21 10.752-23.859 23.962-23.859s23.859 10.65 23.859 23.859zM505.651 901.939c13.21 0 23.962 10.752 23.962 23.962s-10.752 23.859-23.962 23.859c-13.21 0-23.859-10.65-23.859-23.859-0.102-13.21 10.65-23.962 23.859-23.962z" />
<glyph unicode="&#xe028;" glyph-name="nickname2" d="M501.252 949.35c-8.225-1.573-15.237-7.569-18.022-15.434-4.817-13.533 3.080-27.951 17.072-31.293 3.932-0.95 8.946-0.754 12.681 0.492 7.307 2.458 12.878 8.028 15.466 15.434 0.819 2.392 0.885 3.015 0.885 7.373s-0.066 4.981-0.885 7.373c-1.114 3.178-2.097 4.915-4.358 7.733-5.243 6.554-14.418 9.896-22.839 8.323zM507.183 873.755c-0.131-6.521-0.328-9.011-1.049-13.697-7.143-46.137-27.951-96.338-54.559-131.629-26.214-34.8-55.869-54.362-88.834-58.556-5.767-0.754-13.074-0.983-17.531-0.557-20.185 1.933-40.337 12.255-63.57 32.604-12.091 10.551-24.412 23.626-43.549 46.072-4.85 5.669-9.175 10.682-9.601 11.141-0.459 0.459 1.507-2.72 4.358-7.045 12.255-18.743 20.578-31.982 26.411-42.107 16.515-28.639 23.626-49.185 26.935-77.824 1.737-14.877 2.392-29.59 2.687-61.112l0.229-21.463-5.21-4.588c-10.551-9.273-25.494-24.74-35.193-36.372-67.174-80.642-93.651-186.515-72.385-289.44 18.285-88.539 71.565-166.724 147.751-216.859 67.895-44.663 150.11-63.635 231.178-53.346 61.178 7.766 118.096 31.392 167.051 69.37 11.272 8.716 20.873 17.236 32.014 28.377 17.4 17.4 31.293 34.439 44.433 54.428 46.105 70.222 64.651 154.599 52.363 238.387-8.323 56.754-31.293 111.247-66.29 157.123-15.565 20.414-34.996 40.698-53.707 56.033l-4.588 3.768-0.033 11.469c-0.033 12.517 0.426 32.768 0.95 42.598 2.523 47.153 10.289 70.451 38.601 115.835 4.751 7.602 7.832 12.419 18.94 29.426 1.343 1.999 2.359 3.67 2.294 3.67s-2.982-3.342-6.455-7.438c-24.478-28.705-37.028-41.845-51.479-53.871-20.12-16.777-39.027-26.28-56.623-28.443-5.997-0.754-18.219-0.295-25.068 0.95-20.677 3.768-39.715 13.435-57.606 29.164-26.116 22.97-49.25 59.015-65.044 101.253-10.256 27.46-17.105 57.704-17.105 75.465 0 8.159-0.557 5.997-0.721-2.785zM456.622 548.401c46.334-0.328 66.945-0.295 130.023 0.164l74.94 0.557 4.522-2.687c29.164-17.367 56.885-41.419 78.742-68.289 36.864-45.318 59.769-100.729 65.47-158.433 1.212-12.059 1.475-17.662 1.475-30.638s-0.262-18.547-1.475-30.638c-5.636-57.016-28.115-111.87-64.291-156.959-12.386-15.434-27.066-30.343-42.5-43.221-41.91-34.931-93.389-57.934-147.489-65.864-15.303-2.228-27.689-3.113-44.204-3.113-12.485 0-17.302 0.229-28.836 1.311-31.785 2.949-64.127 11.502-93.553 24.707-46.596 20.939-86.802 53.117-117.604 94.208-32.604 43.418-52.855 95.355-58.163 148.931-1.245 12.452-1.475 17.465-1.475 30.638 0 16.384 0.885 28.738 3.113 44.040 10.617 72.516 47.743 138.641 104.497 186.188 11.207 9.372 23.495 18.153 37.159 26.575l5.276 3.244 19.661-0.197c10.813-0.098 44.433-0.328 74.711-0.524zM504.136 529.691c-33.358-2.654-63.242-22.741-78.643-52.855-5.079-9.929-8.487-21.299-9.83-32.801-0.655-5.505-0.655-16.384 0-21.889 3.375-28.738 18.809-53.969 42.697-69.796 4.424-2.916 9.372-5.734 12.78-7.242 1.114-0.492 1.999-0.983 1.901-1.049-0.066-0.066-2.097-0.623-4.489-1.278-39.682-10.355-78.283-36.536-106.365-72.122-10.125-12.845-17.76-25.002-25.035-39.911-9.699-19.857-15.368-38.633-17.826-59.146-0.852-6.914-1.016-20.775-0.36-26.149 2.982-23.396 16.253-43.352 39.846-59.933 44.466-31.293 124.387-45.58 200.868-35.946 43.975 5.505 82.313 18.907 107.971 37.65 21.627 15.794 34.472 35.717 37.356 57.934 0.59 4.555 0.655 15.204 0.131 21.43-4.686 57.213-41.878 116.687-94.503 151.224-17.629 11.567-35.881 19.857-55.116 25.002l-4.653 1.245 4.325 2.195c27.722 13.959 46.924 39.617 52.298 69.96 1.147 6.554 1.442 10.945 1.245 19.3-0.197 8.225-0.59 11.796-2.064 18.514-5.734 25.788-21.955 48.366-44.663 62.095-17.17 10.387-37.618 15.204-57.868 13.566zM206.471 813.494c-11.076-2.884-18.645-13.238-17.957-24.543 0.393-6.16 2.589-10.945 7.078-15.401 4.129-4.096 8.356-6.16 14.189-6.914 11.338-1.442 22.643 6.357 25.723 17.727 0.885 3.277 0.786 9.273-0.197 12.452-2.687 8.684-9.339 15.008-17.629 16.843-3.244 0.721-8.159 0.655-11.207-0.164zM805.798 813.527c-13.894-3.736-21.496-18.448-16.417-31.719 3.867-10.027 14.483-16.45 25.002-15.139 10.224 1.245 18.121 8.225 20.611 18.153 0.557 2.163 0.655 3.31 0.524 6.423-0.295 6.488-2.523 11.469-7.111 16.056-2.884 2.851-5.702 4.588-9.372 5.8-3.67 1.18-9.699 1.376-13.238 0.426z" />
<glyph unicode="&#xe029;" glyph-name="arrow-answer" horiz-adv-x="1218" d="M788.422 958.395c-6.272-1.75-14.879-9.336-18.234-16.046-2.772-5.397-2.917-8.898-2.917-94.377v-88.98l-25.089-0.875c-54.701-2.188-90.001-5.543-132.449-12.545-28.59-4.814-30.195-5.251-65.058-14.003-164.394-41.281-298.74-137.263-391.804-279.923-51.929-79.353-93.064-175.772-118.446-277.151-18.088-71.913-30.341-152.287-32.237-210.781-0.729-22.464-0.729-22.61 1.459-13.128 26.986 117.279 99.628 225.222 203.487 302.095 109.839 81.395 256 130.99 430.313 146.307 37.197 3.355 75.998 5.251 104.734 5.251h25.089v-178.689l3.355-5.689c6.856-12.107 21.589-19.109 32.675-15.754 4.084 1.313 25.965 19.692 83.583 70.455 42.885 37.78 107.943 95.107 144.41 127.198 36.467 32.237 91.314 80.52 121.801 107.36s56.16 49.887 57.181 51.2c6.71 8.46 8.752 24.944 4.376 35.009-2.917 6.71-5.689 9.481-26.548 27.715-9.627 8.46-18.234 16.046-19.109 16.775-0.875 0.875-6.418 5.689-12.399 10.94-5.835 5.251-13.712 12.107-17.358 15.462-3.647 3.209-17.65 15.608-31.362 27.569-13.566 11.815-29.757 25.965-35.738 31.362s-22.464 19.838-36.613 32.237c-23.485 20.713-59.952 52.805-104.15 91.752-9.627 8.46-25.381 22.318-35.009 30.778s-32.966 29.028-51.783 45.803c-18.817 16.629-36.321 31.216-38.947 32.237-5.251 2.334-10.648 2.48-17.213 0.438z" />
<glyph unicode="&#xe030;" glyph-name="arrow-up" horiz-adv-x="594" d="M282.024 958.043c-10.566-2.348-20.741-7.044-30.785-14.219-4.305-3.261-59.744-57.657-122.88-121.054l-115.053-115.184-5.218-11.088c-6.261-13.305-8.088-21.263-8.088-35.612 0-35.481 24.132-66.658 58.701-76.050 11.088-3 29.35-3 40.438 0 19.697 5.348 22.828 7.827 72.397 57.135 25.176 24.915 46.178 45.395 46.7 45.395s0.913-153.926 0.913-342.159c0-377.38-0.652-347.899 8.218-366.031 6.001-12.392 21.784-28.046 34.959-34.438 23.35-11.479 47.482-11.349 71.354 0.391 20.35 10.044 36.655 31.177 41.351 53.352 1.696 8.349 1.957 51.135 1.957 350.117v340.594l46.047-45.656c42.656-42.656 46.569-46.178 55.7-50.613 44.091-21.393 94.704-0.391 111.009 46.178 2.478 7.044 3 11.088 3 24.785 0 14.349-0.391 17.349-3.392 25.046-7.044 18.654-6.914 18.523-122.358 133.837-60.657 60.527-114.531 113.488-119.619 117.662-20.48 16.567-42.525 22.567-65.353 17.61z" />
<glyph unicode="&#xe031;" glyph-name="arrow-up2" horiz-adv-x="499" d="M124.632 820.547c-64.674-76.126-117.895-142.821-117.895-148.211 0-24.253 28.295 1.347 122.611 113.179l103.074 121.263 3.368-483.705c2.695-423.747 4.716-483.705 13.474-483.705s10.779 59.958 13.474 483.705l3.368 483.705 103.074-121.263c94.989-112.505 122.611-137.432 122.611-112.505 0 10.779-233.768 286.989-242.526 286.989-3.368 0-59.284-62.653-124.632-139.453z" />
<glyph unicode="&#xe032;" glyph-name="Timetable11" d="M260 954.6c-8-4.2-12.6-8.4-17-15.6l-6-9.6-0.6-107.4-0.4-107.4 5.6-10.8c8-15.6 20.4-22.8 38.4-22.8s30.4 7.4 38.4 22.8l5.6 10.6v211.2l-5.6 10.6c-7.4 14-20 22.2-36 23.4-9.6 0.6-13.2-0.2-22.4-5zM660 954.6c-8-4.2-12.6-8.4-17-15.6l-6-9.6-0.6-107.4-0.4-107.4 5.6-10.8c8-15.6 20.4-22.8 38.4-22.8s30.4 7.4 38.4 22.8l5.6 10.6v211.2l-5.6 10.6c-7.4 14-20 22.2-36 23.4-9.6 0.6-13.2-0.2-22.4-5zM63.8 873.2c-30.2-8.4-55.2-34.6-61.6-65.2-1.8-8.2-2.2-109.4-1.8-409l0.6-398 6.4-13.6c11.8-25 35.2-44 60.6-49.2 8-1.8 72.8-2.2 241.8-1.8l231 0.6-8.6 5.6c-11.4 7.6-38 33.2-48.2 46.6l-8.4 10.8h-187.2c-142 0-189 0.6-195.2 2.4-10.6 3.2-23.6 16.2-26.8 26.8-1.8 6.4-2.4 63.6-2.4 245.6v237.2h509.4l17.8 9c35.6 17.8 77.8 30.4 119.4 35.6 24.4 3.2 69.2 1.6 101-3.6 23-3.8 73.6-21.4 97.4-34 18.8-10 44.2-26 46.2-29.2 0.6-1 1.8-1.8 3-1.8 1 0 1.8 60 1.8 156.6 0 126-0.6 158.4-2.8 166.6-6.6 24.8-24.6 46-48.6 57.4l-13.6 6.4-50.4 0.6-50.6 0.8v-183.2l-8.2-17c-21.4-44-74-73.4-118.8-66.2-44.4 7-77.2 32-96.2 73l-4.8 10v183h-172v-182.8l-8.2-17c-21.4-44-74-73.4-118.8-66.2-44.4 7-77.2 32-96.2 73l-4.8 10v183l-46.4-0.2c-31 0-49.6-1-55.8-2.6zM707.2 485c-185.8-30.4-288.4-226-206.8-394.2 36.8-76 107.6-131 192.2-149.2 29.2-6.2 81.6-6.2 110.8 0 108.8 23.4 191.6 106.2 215 215 6.2 29.2 6.2 81.6 0 110.8-23.4 108.6-106.2 191.8-214 214.6-25.8 5.6-72.6 7-97.2 3zM778 446c52-6.8 98.4-29.8 136.2-67.8 80-79.8 92.6-200.6 31-295.2-15.2-23.4-44.8-53-68.2-68.2-94.6-61.6-215.4-49-295.2 31-93 92.8-93 239.6 0 332.4 52.4 52.6 123.6 77.2 196.2 67.8zM728 296v-108h172v44h-128v172h-44v-108zM254 443.6c-14.8-5.8-30-21-35.6-36.2-13-34.4 3.6-72.8 36.6-85.2 9.8-3.8 14.8-4.4 28-3.8 24.6 1.4 42.4 12.6 54 34 8.2 15 9.4 37.4 2.8 54.6-12.4 33-51.4 49.8-85.8 36.6zM254 189.6c-14.8-5.8-30-21-35.6-36.2-13-34.4 3.6-72.8 36.6-85.2 9.8-3.8 14.8-4.4 28-3.8 24.6 1.4 42.4 12.6 54 34 8.2 15 9.4 37.4 2.8 54.6-12.4 33-51.4 49.8-85.8 36.6z" />
<glyph unicode="&#xe033;" glyph-name="arrow-up3-2" horiz-adv-x="704" d="M339.2 951.6c-8.6-8.8-12.4-15.2-93.6-167.6-21-39-41.4-77.2-45.6-85-87.4-161.4-88.4-164-81-179.8 9.6-20.4 39.8-23.2 53.4-5 2.8 3.8 23.2 40.6 45.2 81.8s54 101 71.2 133l31.2 58 0.4-415.4 0.6-415.4 4.2-5.4c7.8-10.6 14.2-13.8 26.8-13.8s19 3.2 26.8 13.8l4.2 5.4 2 827.6 60-112.2c33-61.8 61-113.2 62.2-114.6 1.4-1.2 5.8-9 9.8-17 15.2-30 23.6-38 40.2-38 10 0 23.4 8.2 27.6 16.8 5.6 11.8 4.2 22.6-5 38.2-4.6 7.8-32 58.2-60.8 112-89 166.4-123 229.2-125 232-0.8 1.2-6.2 10.4-12 20.8-5.6 10.4-12.8 22-15.6 25.6-4.8 6-13.8 12.6-17.6 12.6-0.6 0-5-3.8-9.6-8.4z" />
<glyph unicode="&#xe034;" glyph-name="loudspeaker-icon" horiz-adv-x="1106" d="M0 351.719l0.004-0.235c0.482-24.039 4.627-47.179 11.424-67.252l0.443-1.592c7.112-22.082 17.544-42.675 30.241-60.496 31.674-44.991 79.095-71.986 135.873-53.090l-0.040 0.025c1.725-1.148 3.796-1.817 6.024-1.817s4.299 0.669 5.984 1.792l3.419 1.26c10.708 3.419 21.506 6.839 32.304 9.988v0c8.548 2.52 16.737 4.949 24.565 7.109l3.059-13.497 1.211-7.113c9.5-46.617 21.933-92.168 34.782-128.67l3.959-10.978c9.178-25.285 19.076-52.28 33.293-70.276 18.086-22.676 41.932-30.234 77.205-1.98h0.54c3.689 3.509 8.008 7.199 12.238 10.888 17.367 14.847 34.643 29.604 39.862 56.599l-0.012-0.043c0.183 0.582 0.282 1.201 0.282 1.843s-0.099 1.261-0.271 1.8c-5.129 14.487-15.027 18.806-27.715 24.205s-25.465 10.798-22.136 37.163l0.81 6.029-0.105-0.552c1.335 5.891 2.040 12.021 2.040 18.316 0 3.954-0.278 7.843-0.765 11.21-1.98 7.289-6.389 11.338-15.387 19.526l-2.16 1.98 0.024-0.027c-5.704 6.24-9.183 14.548-9.183 23.669 0 1.181 0.058 2.348 0.161 3.353l0.012 0.309c0.776 16.285 4.406 31.821 10.066 45.222 141.992 19.346 229.275-5.849 298.832-25.645v0c-66.767 72.436-121.476 177.805-159.359 285.784-36.893 105.459-57.859 214.428-57.859 298.022-58.938-85.123-161.428-210.469-388.724-293.973l-2.609-0.99-0.195-0.045c-3.412-0.916-6.566-2.463-9.253-4.455l-0.013-0.012c-2.145-2.021-3.949-4.399-5.386-7.186l-1.17-1.98c-46.881-15.207-66.857-61.728-66.317-114.188zM790.136 814.588l129.832 96.064c5.698 4.162 9.704 10.502 10.811 17.943l-0.022-0.159c0.248 1.471 0.378 2.983 0.378 4.525 0 5.891-1.887 11.341-5.035 15.699v0.45l-0.052 0.074c-4.202 5.657-10.523 9.646-17.944 10.814l0.145-0.016c-1.248 0.171-2.521 0.26-3.816 0.26-6.126 0-11.789-1.981-16.305-5.282-43.731-31.584-87.283-64.157-131.014-96.461l-0.064-0.047c-6.503-5.019-10.691-12.89-10.691-21.74 0-5.969 1.906-11.494 5.086-15.916l0.63-0.81 0.051-0.071c4.922-6.591 12.784-10.857 21.642-10.857 6.184 0 11.882 2.079 16.369 5.53zM932.488 295.75l145.655-2.789c0.179-0.004 0.359-0.005 0.54-0.005 7.373 0 14.055 2.956 18.924 7.743l0.005 0.005c5.037 4.925 8.211 11.748 8.363 19.341v-0.015c0.001 0.097 0.002 0.194 0.002 0.292 0 15.036-12.012 27.266-26.996 27.617-48.321 0.9-97.451 2.699-145.772 2.699l0.033-0.001c-0.22 0.005-0.441 0.008-0.663 0.008-14.909 0-26.995-12.086-26.995-26.995 0-0.003 0-0.005 0-0.007v-0.607c-0.002-0.149-0.004-0.299-0.004-0.449 0-7.327 2.919-13.972 7.652-18.83l0.010-0.011c4.791-5.021 11.497-8.198 18.976-8.358v0zM936.447 436.842c43.821 2.34 91.782 5.939 135.424 10.258l0.103 0.007c7.411 0.633 13.99 4.182 18.614 9.531l-0.027-0.031c4.159 4.749 6.68 10.969 6.68 17.778 0 0.753-0.031 1.499-0.085 2.139l-0.007 0.099c-1.167 14.133-13.006 25.239-27.44 25.239-0.601 0-1.197-0.019-1.707-0.053-45.081-2.879-90.882-6.749-135.873-10.348l-0.115-0.009c-13.956-1.389-24.855-13.166-24.855-27.487 0-0.551 0.016-1.099 0.045-1.568v-0.63l0.005-0.087c1.008-13.99 12.677-25.027 26.924-25.027 0.815 0 1.622 0.036 2.315 0.099zM916.921 568.217l140.478 40.092c11.412 3.396 19.733 13.967 19.733 26.481 0 2.664-0.377 5.24-1.033 7.482l-0.052 0.196c-2.108 6.803-6.766 12.485-12.995 16l0.132-0.070c-3.945 2.256-8.514 3.546-13.384 3.546-2.652 0-5.214-0.382-7.445-1.047-46.881-12.598-93.582-27.715-140.463-40.042l-0.198-0.051c-6.914-2.087-12.695-6.785-16.269-13.086l0.070 0.132c-2.256-3.945-3.546-8.514-3.546-13.384 0-2.652 0.382-5.214 1.047-7.445l0.048-0.195c3.33-11.462 13.909-19.839 26.445-19.839 2.678 0 5.267 0.382 7.52 1.047zM860.232 696.891l135.13 67.559c6.305 3.224 11.209 8.8 13.611 15.764l-0.058-0.189c0.988 2.806 1.526 5.825 1.526 8.969 0 4.445-1.075 8.64-2.907 12.186l-0.070 0.16c-4.377 9.001-13.609 15.205-24.291 15.205-4.546 0-8.83-1.124-12.441-3.038l-135.129-67.47c-6.31-3.259-11.212-8.862-13.612-15.854l0.057 0.19c-0.965-2.776-1.489-5.758-1.489-8.863 0-4.487 1.095-8.719 2.961-12.292l0.072-0.156c4.528-8.93 13.796-15.051 24.493-15.051 4.46 0 8.671 1.064 12.238 2.879zM528.647 852.021c-19.256-53.989-11.068-156.749 17.727-267.878l1.35 0.72c12.598 6.209 44.451 6.209 76.485-4.589 78.555-26.905 109.509-142.982 46.521-209.389-12.598-13.047-25.735-20.696-35.993-18.716 40.132-75.135 87.823-139.023 141.722-177.535l0.069-0.046c0.77-0.542 1.504-1.133 2.18-1.753l0.281 0.035c8.165 1.238 15.692 4.423 21.945 8.963l0.81 0.63c15.657 15.027 25.195 37.793 29.784 65.957 12.148 75.675-12.148 192.202-52.64 303.871s-97.361 217.937-151.35 273.637c-22.046 22.586-43.731 37.343-63.978 40.582l0.223-0.048c-2.553 0.651-5.229 0.997-7.985 0.997-3.662 0-7.181-0.611-10.234-1.669l-0.244-0.104c-4.998-2.364-9.429-5.73-13.073-9.884-1.17-1.17-2.43-2.43-3.599-3.779z" />
<glyph unicode="&#xe035;" glyph-name="arrow-right2" horiz-adv-x="565" d="M9.17 920.263c-7.642-18.34 50.436-87.116 212.442-249.122l221.612-224.669-213.97-212.442c-149.779-148.251-213.97-224.669-213.97-247.594 0-25.982 9.17-35.152 35.152-35.152 44.322 0 499.773 452.394 499.773 496.716 0 19.869-87.116 119.212-233.839 264.406-230.782 230.782-284.275 267.463-307.2 207.857z" />
<glyph unicode="&#xe036;" glyph-name="arrow-right-4" horiz-adv-x="898" d="M34.77 939.367c-17.194-9.552-24.072-32.096-15.284-49.29 2.293-4.585 99.725-103.928 216.263-220.848 185.696-186.078 211.678-213.588 210.531-222.376-0.764-7.642-56.167-65.337-213.588-223.14-170.412-171.176-213.206-215.499-214.734-225.433-6.496-33.624 24.072-57.313 53.875-41.648 5.731 3.057 114.627 110.042 242.245 238.042 251.415 251.797 244.919 244.537 231.164 270.901-8.788 16.43-465.003 470.352-477.612 474.937-14.137 5.349-21.779 4.967-32.86-1.146zM355.725 939.367c-17.194-9.552-24.072-32.096-15.284-49.29 2.293-4.585 99.725-103.928 216.263-220.848 185.696-186.078 211.678-213.588 210.531-222.376-0.764-7.642-56.167-65.337-213.588-223.14-170.412-171.176-213.206-215.499-214.734-225.433-6.496-33.624 24.072-57.313 53.875-41.648 5.731 3.057 114.627 110.042 242.245 238.042 251.415 251.797 244.919 244.537 231.164 270.901-8.788 16.43-465.003 470.352-477.612 474.937-14.137 5.349-21.779 4.967-32.86-1.146z" />
<glyph unicode="&#xe037;" glyph-name="live" horiz-adv-x="3356" d="M391.111 945.067c-29.156-7.111-80.356-26.311-113.778-42.667-108.8-53.333-213.333-174.222-251.022-290.844-36.267-109.511-34.844-230.4 2.844-334.222 28.444-77.511 59.022-123.733 123.733-189.156 52.622-53.333 74.667-70.4 124.444-94.578 33.422-15.644 86.044-35.556 116.622-43.378 55.467-14.222 81.067-14.222 1286.4-14.222 857.6 0 1238.756 2.133 1259.378 7.822 70.4 18.489 88.889 24.889 140.089 50.489 226.844 113.778 333.511 388.267 245.333 630.044-47.644 131.556-175.644 259.556-305.778 305.778-83.911 29.867-57.6 29.156-1344.711 29.156-1184-0.711-1232.356-0.711-1283.556-14.222zM645.689 856.889c96.711-30.578 191.289-108.089 241.778-196.978 56.889-100.267 70.4-233.956 34.844-343.467-58.311-176.356-219.733-295.822-403.2-297.956-118.756-0.711-213.333 35.556-299.378 115.2-152.889 141.511-182.756 374.756-70.4 546.844 109.511 166.4 306.489 236.8 496.356 176.356zM1308.444 497.778v-227.556h284.444v-99.556h-405.333v554.667h120.889v-227.556zM1827.556 448v-277.333h-120.889v554.667h120.889v-277.333zM2039.467 713.244c3.556-7.111 36.267-96.711 72.533-199.822 36.267-102.4 68.267-184.178 71.111-181.333s33.422 88.889 67.556 190.578c34.844 101.689 66.133 189.156 69.689 194.133 4.267 5.689 27.022 8.533 65.422 8.533h58.311l-98.844-264.533c-54.044-145.778-102.4-272.356-106.667-281.6-7.111-14.222-13.511-15.644-56.889-15.644-33.422 0-52.622 3.556-59.733 9.956-4.978 5.689-44.8 105.956-88.178 222.578s-88.178 236.8-99.556 267.378c-12.089 30.578-21.333 57.6-21.333 59.022s27.022 2.844 60.444 2.844c49.778 0 61.156-2.133 66.133-12.089zM2958.222 675.556v-49.778h-305.778v-128h291.556v-99.556h-291.556v-128h305.778v-99.556h-426.667v554.667h426.667v-49.778zM389.689 684.089c-10.667-1.422-26.311-10.667-34.133-20.622-13.511-17.067-14.222-28.444-14.222-216.178 0-196.978 0-197.689 16.356-216.889 30.578-35.556 49.067-29.156 221.156 76.089 231.822 142.222 231.822 139.378 5.689 278.756-84.622 51.2-158.578 95.289-164.267 97.422-6.4 2.133-19.911 2.844-30.578 1.422z" />
<glyph unicode="&#xe038;" glyph-name="live2" horiz-adv-x="3085" d="M60.422 949.824c-10.176-5.088-24.169-14.629-31.165-20.353-29.893-27.349-29.257-17.809-29.257-485.923v-440.765l15.265-22.897c32.437-47.702-108.76-43.886 1529.004-43.886h1468.581l21.625 14.629c11.448 7.632 27.985 25.441 35.617 39.434l14.629 25.441v431.225c0 475.111 2.544 445.853-41.342 487.831l-22.897 22.261-1470.489 1.272c-1324.204 1.908-1472.398 0.636-1489.57-8.268zM1139.757 494.43l1.908-224.517 122.753-1.908 122.117-1.272v-89.043h-349.814v540.621h101.764l1.272-223.881zM1545.54 448v-270.311h-95.404v540.621h95.404v-270.311zM1751.612 526.231c37.525-106.216 71.235-195.26 74.415-198.44s6.996-4.452 9.54-1.908c1.908 1.908 36.253 90.316 75.051 196.532l71.871 192.716 52.154 1.908c48.338 1.908 52.154 0.636 48.974-9.54-1.908-6.36-48.974-127.205-104.308-269.039l-100.492-257.59-95.404-3.816-103.036 265.858c-56.606 146.286-103.036 267.766-103.036 270.947 0 2.544 23.533 4.452 52.79 4.452h52.79l68.691-192.080zM2512.298 670.609v-47.702h-305.292v-133.565h286.211v-95.404h-286.211v-127.205h305.292v-89.043h-400.696v540.621h400.696v-47.702zM585.779 642.624c47.066-22.261 79.503-54.062 102.4-101.128 18.445-37.525 20.989-48.338 20.989-96.676 0-46.43-2.544-59.15-17.809-90.316-22.897-47.066-75.687-95.404-120.209-110.668-43.25-14.629-106.852-14.629-150.102 0-20.353 6.996-46.43 23.533-68.055 42.614-122.117 111.94-83.955 304.656 71.871 363.806 41.342 15.265 120.845 12.084 160.914-7.632z" />
<glyph unicode="&#xe039;" glyph-name="nickname3" d="M501.252 949.35c-8.225-1.573-15.237-7.569-18.022-15.434-4.817-13.533 3.080-27.951 17.072-31.293 3.932-0.95 8.946-0.754 12.681 0.492 7.307 2.458 12.878 8.028 15.466 15.434 0.819 2.392 0.885 3.015 0.885 7.373s-0.066 4.981-0.885 7.373c-1.114 3.178-2.097 4.915-4.358 7.733-5.243 6.554-14.418 9.896-22.839 8.323zM507.183 873.755c-0.131-6.521-0.328-9.011-1.049-13.697-7.143-46.137-27.951-96.338-54.559-131.629-26.214-34.8-55.869-54.362-88.834-58.556-5.767-0.754-13.074-0.983-17.531-0.557-20.185 1.933-40.337 12.255-63.57 32.604-12.091 10.551-24.412 23.626-43.549 46.072-4.85 5.669-9.175 10.682-9.601 11.141-0.459 0.459 1.507-2.72 4.358-7.045 12.255-18.743 20.578-31.982 26.411-42.107 16.515-28.639 23.626-49.185 26.935-77.824 1.737-14.877 2.392-29.59 2.687-61.112l0.229-21.463-5.21-4.588c-10.551-9.273-25.494-24.74-35.193-36.372-67.174-80.642-93.651-186.515-72.385-289.44 18.285-88.539 71.565-166.724 147.751-216.859 67.895-44.663 150.11-63.635 231.178-53.346 61.178 7.766 118.096 31.392 167.051 69.37 11.272 8.716 20.873 17.236 32.014 28.377 17.4 17.4 31.293 34.439 44.433 54.428 46.105 70.222 64.651 154.599 52.363 238.387-8.323 56.754-31.293 111.247-66.29 157.123-15.565 20.414-34.996 40.698-53.707 56.033l-4.588 3.768-0.033 11.469c-0.033 12.517 0.426 32.768 0.95 42.598 2.523 47.153 10.289 70.451 38.601 115.835 4.751 7.602 7.832 12.419 18.94 29.426 1.343 1.999 2.359 3.67 2.294 3.67s-2.982-3.342-6.455-7.438c-24.478-28.705-37.028-41.845-51.479-53.871-20.12-16.777-39.027-26.28-56.623-28.443-5.997-0.754-18.219-0.295-25.068 0.95-20.677 3.768-39.715 13.435-57.606 29.164-26.116 22.97-49.25 59.015-65.044 101.253-10.256 27.46-17.105 57.704-17.105 75.465 0 8.159-0.557 5.997-0.721-2.785zM456.622 548.401c46.334-0.328 66.945-0.295 130.023 0.164l74.94 0.557 4.522-2.687c29.164-17.367 56.885-41.419 78.742-68.289 36.864-45.318 59.769-100.729 65.47-158.433 1.212-12.059 1.475-17.662 1.475-30.638s-0.262-18.547-1.475-30.638c-5.636-57.016-28.115-111.87-64.291-156.959-12.386-15.434-27.066-30.343-42.5-43.221-41.91-34.931-93.389-57.934-147.489-65.864-15.303-2.228-27.689-3.113-44.204-3.113-12.485 0-17.302 0.229-28.836 1.311-31.785 2.949-64.127 11.502-93.553 24.707-46.596 20.939-86.802 53.117-117.604 94.208-32.604 43.418-52.855 95.355-58.163 148.931-1.245 12.452-1.475 17.465-1.475 30.638 0 16.384 0.885 28.738 3.113 44.040 10.617 72.516 47.743 138.641 104.497 186.188 11.207 9.372 23.495 18.153 37.159 26.575l5.276 3.244 19.661-0.197c10.813-0.098 44.433-0.328 74.711-0.524zM503.644 474.509c-22.282-1.278-41.157-5.341-60.293-12.976-59.769-23.888-103.023-77.038-114.164-140.345-1.933-11.076-2.621-19.3-2.621-32.113 0-12.78 0.655-20.939 2.621-32.113 6.193-35.455 23.003-68.977 47.71-95.060 15.892-16.843 33.554-29.786 54.166-39.813 21.037-10.191 41.648-15.827 66.028-18.055 5.702-0.492 24.117-0.492 29.819 0 19.792 1.802 36.536 5.734 53.74 12.583 59.736 23.855 103.121 77.201 114.164 140.345 1.966 11.174 2.621 19.333 2.621 32.113 0 10.224-0.262 15.041-1.311 23.429-5.702 45.908-29.229 88.965-64.979 118.85-29.655 24.773-65.012 39.289-103.907 42.697-3.998 0.36-19.988 0.655-23.593 0.459zM206.471 813.494c-11.076-2.884-18.645-13.238-17.957-24.543 0.393-6.16 2.589-10.945 7.078-15.401 4.129-4.096 8.356-6.16 14.189-6.914 11.338-1.442 22.643 6.357 25.723 17.727 0.885 3.277 0.786 9.273-0.197 12.452-2.687 8.684-9.339 15.008-17.629 16.843-3.244 0.721-8.159 0.655-11.207-0.164zM805.798 813.527c-13.894-3.736-21.496-18.448-16.417-31.719 3.867-10.027 14.483-16.45 25.002-15.139 10.224 1.245 18.121 8.225 20.611 18.153 0.557 2.163 0.655 3.31 0.524 6.423-0.295 6.488-2.523 11.469-7.111 16.056-2.884 2.851-5.702 4.588-9.372 5.8-3.67 1.18-9.699 1.376-13.238 0.426z" />
<glyph unicode="&#xe040;" glyph-name="Send-512" d="M773 893.8c-63.6-12.6-110.2-55.4-128.2-117.8-4.4-15.6-5-58-1-71.8 1.4-4.6 2.2-8.8 1.8-9.2s-67.2-33.8-148.6-74.6l-148-73.8-9 10c-17.8 20.2-46.8 37.6-75.4 45.8-20 5.6-59.2 6.4-77.6 1.2-41.4-11.4-73-33.2-95-65.8-19.4-28.2-26.8-53.6-26.8-89.8-0.2-34.8 7-59.4 24.8-86.6 22.6-34.8 54-57.2 97-69 16.8-4.6 57.4-4.4 75 0.4 29 7.8 60 26.4 78 46.6l9 10 148-73.8c81.4-40.8 148.2-74.2 148.6-74.6 0.2-0.2-0.6-4.8-1.8-10.2-1.4-5.4-2.4-19.6-2.4-31.8 0.4-72.4 47-133.2 118-153.4 12.6-3.6 20.6-4.4 41.6-4.4 30.6 0 43.6 3 70 15.8 40.4 19.6 69.2 54 83.4 99 4 12.8 4.6 19.2 4.6 44s-0.6 31.2-4.6 44c-14.2 45.2-43 79.2-83.8 99.2-54 26.6-116.4 20.6-165.6-15.6-6.6-4.8-16-13.4-21-19l-9-10-148.6 74.2c-132.2 66-148.4 74.6-147.4 78.2 0.6 2.2 2.2 11.4 3.4 20.6 2.2 15.4 0.6 39-3.4 53.4-1 3.6 15.2 12.2 147.4 78.2l148.6 74.2 9-10c18-20.2 49-38.8 78-46.6 17.6-4.8 58.2-5 75-0.4 43 11.8 74.4 34.2 97 69 17.8 27.2 25 51.8 25 86.6s-7.2 59.4-25 86.6c-22.4 34.6-54.2 57.4-96 68.8-13.6 3.6-51.6 5-65 2.4z" />
<glyph unicode="&#xe041;" glyph-name="Telegram_logo-3" d="M915 831.6c-27-9.6-827.6-318.8-835-322.6-33.2-16.8-37.2-41-9.2-55.4 4.4-2.2 56.6-19.2 115.8-37.8l107.6-33.6 245.6 154.8c135.2 85 249.2 155.6 253.4 156.8 10.2 2.8 16.8 1 16.8-4.6 0-3.4-46.8-46.8-192.4-178.4-105.8-95.6-195.2-176.4-198.8-179.8l-6.6-6-7.2-102c-3.8-56-7-104.4-7-107.4 0-5 0.8-5.6 6.6-5.6 13.6 0.2 22.6 7 72.6 55.4 27 26.2 53 50.8 57.6 54.8l8.2 7.4 107-78.8c75.2-55.4 110.2-80 118-83 15.6-6 31.2-4.6 41.4 3.4 16.8 13.2 14 1.4 90.8 363.8 45.8 216.6 70.6 337.6 71.4 348.2 1.4 25.4-6 41.6-22.4 49-9 4-24.6 4.8-34.2 1.4z" />
<glyph unicode="&#xe043;" glyph-name="result" horiz-adv-x="726" d="M360.69 958.855c-44.82-9.978-71.811-42.367-71.484-85.551 0-12.105 1.145-18.157 6.052-33.861l1.145-3.599-46.456-0.491c-51.364-0.491-53.163-0.818-64.45-12.268-9.651-9.651-11.123-14.068-11.778-35.987l-0.654-19.793-58.397-0.818c-43.675-0.491-60.033-1.309-65.595-2.944-24.864-7.852-42.858-27.481-47.438-52.018-2.454-12.759-2.29-707.803 0.164-720.726 4.58-25.027 21.919-43.675 47.438-51.691 9.651-2.944 20.774-3.108 313.743-3.108 274.484 0 304.746 0.327 312.762 2.617 18.321 5.398 30.426 14.395 40.24 29.771 10.796 16.849 10.305-5.398 10.305 382.446 0 231.136-0.491 354.965-1.636 360.69-3.599 18.648-15.049 35.333-30.753 44.493-16.031 9.324-18.812 9.651-82.28 10.469l-58.397 0.818-0.654 19.793c-0.654 21.919-2.127 26.336-11.778 35.987-10.96 10.96-14.231 11.778-53.654 12.268-19.629 0.327-35.66 0.981-35.66 1.636s1.472 5.889 3.272 11.45c4.417 13.904 4.417 36.642 0.164 50.546-8.997 29.771-35.66 53.654-66.249 59.215-9.651 1.799-21.756 2.127-27.972 0.654zM395.369 919.76c30.589-14.558 38.604-55.289 15.54-79.499l-4.253-4.58h-67.231l-4.58 5.725c-12.105 15.213-15.049 36.642-7.361 53.163 12.759 27.154 41.385 37.787 67.885 25.191zM174.047 690.423c1.309-8.342 6.707-16.194 15.54-22.41l7.034-4.907h333.045l7.034 4.907c8.833 6.216 14.231 14.068 15.54 22.41l1.145 6.216h38.441c35.824 0 39.095-0.327 45.638-3.435 8.342-4.089 15.704-12.432 18.321-20.938 2.454-8.342 2.617-632.721 0.164-641.554-2.781-9.651-13.577-20.611-23.392-23.555-12.432-3.599-526.231-3.762-538.663 0-9.488 2.781-17.012 9.815-21.756 20.447-3.272 7.361-3.435 9.16-3.435 323.885v316.524l3.926 8.342c3.762 8.342 11.123 15.376 18.975 18.484 2.29 0.818 21.429 1.636 42.694 1.636l38.604 0.164 1.145-6.216zM350.058 610.433c-66.413-2.454-138.224-38.277-180.427-90.132-39.422-48.419-58.397-101.255-58.397-162.27 0-44.33 8.506-79.172 28.79-117.776 37.623-71.32 105.344-119.576 186.152-132.498 14.558-2.29 59.379-2.29 73.937 0 80.808 12.923 148.365 61.178 186.152 132.498 20.284 38.604 28.79 73.447 28.79 117.776 0 25.845-1.799 40.567-8.015 64.777-12.923 50.709-44.493 99.456-85.388 131.844-50.055 39.586-106.653 58.070-171.594 55.78zM398.967 537.968c25.191-5.071 51.036-16.194 70.339-29.935 10.469-7.525 34.188-30.426 39.259-37.787 2.29-3.435 6.38-9.324 8.833-13.086 11.614-17.012 22.083-42.858 26.009-64.613 2.781-14.068 2.781-55.126 0-69.684-3.926-21.265-14.395-46.783-26.009-63.959-2.454-3.762-6.543-9.651-8.833-13.086-5.071-7.361-28.79-30.262-39.259-37.787-38.441-27.481-91.113-39.095-139.369-30.753-55.126 9.651-105.672 47.928-131.517 99.783-27.972 55.617-23.555 129.881 10.469 180.1 2.454 3.762 6.543 9.651 8.997 13.086 6.543 9.651 28.463 30.426 41.222 39.095 21.429 14.395 47.111 25.191 70.502 29.444 18.321 3.435 50.873 2.944 69.357-0.818zM440.353 441.948c-4.417-2.127-15.704-13.413-57.58-57.907-1.309-1.309-12.268-12.923-24.373-25.682-11.941-12.759-22.41-23.228-23.228-23.228-0.654 0-10.469 9.16-21.592 20.284-23.392 23.555-28.463 27.154-38.932 27.154-8.67 0-15.704-4.417-27.972-17.503-8.342-8.997-10.633-15.867-8.67-26.336 0.981-5.235 6.87-11.941 42.203-47.438 45.802-45.802 49.237-48.419 62.16-44.657 5.398 1.636 10.469 5.725 23.228 18.812 28.626 29.281 114.341 120.557 119.085 126.61 3.599 4.744 4.417 7.525 4.417 15.049 0 10.796-3.762 17.012-17.176 27.972-12.596 10.305-20.938 12.105-31.571 6.87z" />
<glyph unicode="&#xe044;" glyph-name="result2" d="M719.258 161.28h-414.515c-19.046 0-34.509-16.077-34.509-35.84s15.462-35.84 34.509-35.84h414.515c19.046 0 34.509 16.077 34.509 35.84 0.102 19.763-15.462 35.84-34.509 35.84zM304.742 519.68h172.749c19.046 0 34.509 16.077 34.509 35.84s-15.462 35.84-34.509 35.84h-172.749c-19.046 0-34.509-16.077-34.509-35.84s15.462-35.84 34.509-35.84zM650.138 949.76h-449.024c-38.195 0-69.12-32.051-69.12-71.68v-860.16c0-39.629 30.925-71.68 69.12-71.68h621.875c38.195 0 69.12 32.051 69.12 71.68v680.96l-241.971 250.88zM822.886 89.6c0-39.629-30.925-71.68-69.12-71.68h-483.635c-38.195 0-69.12 32.051-69.12 71.68v716.8c0 39.629 30.925 71.68 69.12 71.68h310.886v-179.2c0-39.629 30.925-71.68 69.12-71.68h172.749v-537.6zM270.131 412.16c0-19.763 15.462-35.84 34.509-35.84h414.515c19.046 0 34.509 16.077 34.509 35.84s-15.462 35.84-34.509 35.84h-414.413c-19.046 0-34.611-16.077-34.611-35.84zM719.258 304.64h-414.515c-19.046 0-34.509-16.077-34.509-35.84s15.462-35.84 34.509-35.84h414.515c19.046 0 34.509 16.077 34.509 35.84 0.102 19.763-15.462 35.84-34.509 35.84z" />
<glyph unicode="&#xe046;" glyph-name="live8" d="M466 958c-98.8-9.6-190-46-270-107.6-39-30-89.6-86.4-118.8-132.4-12.6-19.8-37.2-70.2-46-94.2-49-133.6-39.2-284 26.6-410.8 25.6-49.6 52-85 94-127 43.2-43.2 81.8-70.8 135.2-97 49.4-24.2 93.8-38.4 149-47.4 39-6.2 113-6.2 152 0 55.2 9 99.6 23.2 149 47.4 53.4 26.2 92 53.8 135.2 97 42 42 68.4 77.4 94 127 65.8 126.6 75.6 277.4 26.6 410.8-8.8 24-33.4 74.4-46 94.2-40.8 64.2-100.6 124-164.8 164.8-19.8 12.6-70.2 37.2-94.2 46-27 9.8-68.2 20.4-98.8 25.2-29.4 4.6-95 6.8-123 4zM468 669.4c9.8-5.2 19.2-11.6 64-43.4 7.2-5 22.4-15.8 34-24s26.8-19 34-24c7.2-5.2 28.8-20.4 48-34 53.2-37.4 63.2-45.4 69.8-55.8 9.8-15.2 12.8-26.4 11.8-42.8-1.2-17.6-6.8-30.2-19.4-43.6-9.8-10.2-232-168-243.6-172.8-36.4-15.2-79.2 0-96.8 34.4l-4.8 9.6-0.6 173.4c-0.4 170.6-0.4 173.4 3.6 184.2 7 18.6 24.2 34.8 45.6 42.8 4.8 1.6 14 2.4 25.4 2 15.2-0.4 19.8-1.4 29-6z" />
<glyph unicode="&#xe047;" glyph-name="mail" horiz-adv-x="1413" d="M59.625 956.976c-4.321-0.864-7.777-3.457-7.777-4.753 0-5.185 623.905-626.066 633.843-631.251 12.098-6.049 38.022-6.049 50.12 0 9.938 5.185 629.522 621.745 629.522 626.498 0 11.666-47.095 12.53-662.792 12.098-349.543-0.432-639.028-1.296-642.916-2.592zM4.753 903.399c-3.457-9.938-4.753-146.039-4.753-455.399 0-425.154 1.296-468.793 12.53-468.793 1.296 0 108.017 105.424 237.205 234.613l234.181 234.181-234.613 234.613c-128.756 128.756-235.477 234.181-237.205 234.181-1.296 0-4.753-6.049-7.345-13.394zM1170.039 680.452l-232.020-232.452 230.292-232.020c126.596-127.892 231.156-232.452 232.452-232.452 10.802 0 12.098 46.663 12.098 466.201-0.432 332.692-1.728 442.005-5.617 451.078l-5.185 11.666-232.020-232.020zM283.004 177.958c-127.892-127.892-231.588-234.613-229.428-236.341 1.728-1.728 290.349-3.889 641.188-4.753 619.153-1.296 670.569-0.432 670.569 11.234 0 1.728-104.128 107.153-231.156 234.181l-231.156 231.156-63.946-63.514c-69.995-69.995-88.574-81.661-127.892-82.093-38.886-0.432-57.897 11.666-127.892 80.797-34.565 34.565-63.946 62.65-64.81 62.65-1.296 0-107.153-104.992-235.477-233.316z" />
<glyph unicode="&#xe048;" glyph-name="password" horiz-adv-x="827" d="M381.327 957.387c-40.865-5.94-89.095-25.659-120.219-49.418-34.45-26.372-66.762-66.524-81.73-102.162-18.057-42.528-23.996-85.294-21.62-156.332l1.426-48.23h-20.67c-46.805 0-76.265-10.691-102.4-37.301-17.819-18.057-27.085-33.5-32.549-54.17-5.465-20.908-5.227-457.83 0-480.876 10.216-43.003 44.429-78.166 86.957-89.333 10.929-3.089 61.773-3.564 324.069-3.564 201.236 0 315.040 0.95 321.693 2.613 27.085 6.177 57.971 29.461 73.652 55.358 17.581 29.223 16.869 18.769 16.869 270.374 0 158.233-0.713 228.796-2.613 237.587-9.028 42.053-42.053 78.879-82.918 92.184-10.216 3.564-24.709 5.702-43.954 6.652l-28.51 1.663 0.95 51.081c0.95 57.971-2.138 90.758-10.691 120.457-14.73 51.081-44.191 95.272-84.819 127.822-54.17 43.478-129.010 64.861-192.921 55.595zM433.359 855.462c50.606-7.365 92.421-36.588 115.23-80.542 15.681-30.411 17.344-39.202 18.532-106.201 1.188-53.457 0.713-59.872-2.851-63.436-3.564-3.801-16.394-4.039-150.868-4.039h-147.304l-3.801 5.94c-3.326 5.227-3.801 12.83-2.613 63.436 1.188 64.861 2.851 74.127 18.532 104.063 22.333 43.241 65.099 73.652 112.616 80.542 19.72 2.851 23.996 2.851 42.528 0.238zM446.901 439.922c28.51-10.691 51.319-32.787 62.010-59.634 4.277-10.454 5.227-17.819 5.465-38.252 0-23.996-0.238-25.659-8.791-42.766-6.177-12.592-13.067-21.858-24.234-32.549-9.979-9.503-15.681-16.869-15.681-20.195 0-2.851-0.475-30.411-0.713-61.060l-0.475-55.833-7.128-14.255c-9.503-19.007-21.62-26.135-43.954-26.135s-34.45 7.128-43.954 26.135l-7.128 14.255-0.238 50.131c-0.238 27.56-1.188 53.695-2.138 58.209-2.851 13.305-10.216 25.659-25.422 41.815-7.84 8.316-16.156 19.957-18.769 25.659-6.89 15.443-8.316 37.301-3.564 55.358 10.454 40.865 34.213 68.663 69.375 81.255 17.819 6.177 45.379 5.465 65.336-2.138z" />
<glyph unicode="&#xe049;" glyph-name="password2" horiz-adv-x="960" d="M447.852 957.387c-40.865-5.94-89.095-25.659-120.219-49.418-34.45-26.372-66.762-66.524-81.73-102.162-18.057-42.528-23.996-85.294-21.62-156.332l1.426-48.23h-53.932c-29.936 0-61.060-1.188-69.375-2.613-46.092-7.365-87.194-44.429-98.836-88.858-5.465-20.908-5.227-457.83 0-480.876 10.216-43.003 44.429-78.166 86.957-89.333 10.929-3.089 70.563-3.564 390.593-3.564 245.903 0 381.327 0.95 388.217 2.613 27.085 6.177 57.971 29.461 73.652 55.358 17.581 29.223 16.869 18.769 16.869 270.374 0 158.233-0.713 228.796-2.613 237.587-9.028 41.815-41.578 78.404-82.918 92.421-13.78 4.752-21.858 5.465-77.216 6.652l-61.773 1.426 0.95 51.081c0.95 57.971-2.138 90.758-10.691 120.457-14.73 51.081-44.191 95.272-84.819 127.822-54.17 43.478-129.010 64.861-192.921 55.595zM499.883 855.462c50.606-7.365 92.421-36.588 115.23-80.542 15.681-30.411 17.344-39.202 18.532-106.201 1.188-53.457 0.713-59.872-2.851-63.436-3.564-3.801-16.394-4.039-150.868-4.039h-147.304l-3.801 5.94c-3.326 5.227-3.801 12.83-2.613 63.436 1.188 64.861 2.851 74.127 18.532 104.063 22.333 43.241 65.099 73.652 112.616 80.542 19.72 2.851 23.996 2.851 42.528 0.238zM513.426 439.922c28.51-10.691 51.319-32.787 62.010-59.634 4.277-10.454 5.227-17.819 5.465-38.252 0-23.996-0.238-25.659-8.791-42.766-6.177-12.592-13.067-21.858-24.234-32.549-9.979-9.503-15.681-16.869-15.681-20.195 0-2.851-0.475-30.411-0.713-61.060l-0.475-55.833-7.128-14.255c-9.503-19.007-21.62-26.135-43.954-26.135s-34.45 7.128-43.954 26.135l-7.128 14.255-0.238 50.131c-0.238 27.56-1.188 53.695-2.138 58.209-2.851 13.305-10.216 25.659-25.422 41.815-7.84 8.316-16.156 19.957-18.769 25.659-6.89 15.443-8.316 37.301-3.564 55.358 10.454 40.865 34.213 68.663 69.375 81.255 17.819 6.177 45.379 5.465 65.336-2.138z" />
<glyph unicode="&#xe050;" glyph-name="user-login3" horiz-adv-x="1056" d="M499.726 958.071c-28.756-2.805-69.436-14.203-95.036-27.178-81.184-40.679-137.118-116.077-153.074-206.729-3.858-21.216-4.384-69.085-1.052-88.548 9.644-56.811 29.984-100.997 65.578-143.43 38.049-45.063 89.951-76.274 152.022-91.003 25.6-5.962 72.942-7.54 100.647-3.156 117.129 18.236 208.307 106.082 232.679 224.088 5.085 25.249 6.312 66.104 2.63 92.405-8.592 61.37-34.016 114.323-75.397 157.458-25.951 27.003-46.641 42.433-77.501 57.863-32.088 16.132-62.948 24.899-99.945 28.405-21.392 1.929-27.704 1.929-51.551-0.175zM304.219 357.874c-53.479-19.463-97.14-42.784-140.274-75.222-19.814-14.904-64.701-60.318-79.43-80.307-51.551-69.962-79.255-150.093-83.814-242.323l-1.227-24.022h1056.614l-1.227 24.548c-4.91 99.77-39.452 191.123-97.49 257.753-6.137 7.189-13.326 15.43-15.781 18.236-8.241 9.468-41.205 38.4-57.512 50.499-22.268 16.658-52.953 35.068-80.132 48.044-22.619 10.696-68.734 28.932-74.345 29.107-1.578 0-11.397-4.91-22.093-10.871-59.266-34.016-109.94-47.342-180.252-47.342-46.115 0-80.482 5.26-117.655 17.71-22.795 7.715-51.901 21.567-71.189 34.016-6.838 4.384-12.449 7.89-12.8 7.715-0.175 0-9.819-3.507-21.392-7.54z" />
<glyph unicode="&#xe051;" glyph-name="female-form" horiz-adv-x="1030" d="M581.531 899.951v-60.049h120.099c66.37 0 120.099-1.264 120.099-1.896 0-1.264-30.341-32.237-67.635-68.899l-67.002-66.37-38.558 24.020c-56.257 36.030-126.42 56.889-202.904 60.681-80.277 3.793-138.43-8.217-211.121-42.983-44.247-21.491-64.474-36.030-108.089-80.909-87.23-87.862-126.42-180.78-126.42-300.879 0-118.202 39.19-213.017 123.259-297.719 80.909-82.173 166.874-120.731 281.284-127.052 168.77-8.849 328.691 83.437 400.751 233.244 63.842 132.741 63.21 256.632-1.264 385.58l-30.973 61.946 67.002 64.474 67.002 65.106 1.896-118.835 1.264-118.202h120.099v448.79h-448.79v-60.049zM506.311 659.121c108.721-31.605 189.63-114.41 217.442-221.867 27.18-104.296-8.849-224.395-89.126-298.351-143.486-131.477-364.721-101.768-470.914 63.21-58.785 91.654-58.785 230.716 0.632 323.635 40.454 63.842 117.57 120.099 187.101 136.533 39.822 9.481 117.57 7.585 154.864-3.16z" />
<glyph unicode="&#xe052;" glyph-name="male-form" horiz-adv-x="702" d="M285.031 956.305c-98.705-16.363-201.633-94.482-247.027-186.854-65.979-133.014-44.866-285.559 53.311-392.709 51.728-57.006 112.429-92.371 184.742-108.206l30.087-6.862v-93.427h-137.237v-100.289h137.237v-131.959h95.010v131.959h137.237v100.289h-137.237v95.010l14.779 3.167c135.126 29.559 238.581 126.153 273.419 255.472 11.085 42.227 12.668 128.264 2.639 168.907-31.67 128.264-134.598 231.72-259.167 260.751-31.67 7.918-115.068 10.029-147.794 4.751zM405.905 857.072c93.955-22.169 171.546-100.816 191.076-193.188 8.445-39.060 3.167-106.623-10.557-143.043-34.309-88.148-122.986-154.128-216.94-160.99-195.299-14.779-330.953 186.326-244.388 362.623 51.728 106.095 167.324 160.99 280.808 134.598z" />
<glyph unicode="&#xe054;" glyph-name="unknow-user" d="M455.805 952.507c-61.815-7.493-149.229-36.839-202.927-68.683-56.82-33.093-143.61-119.883-176.702-176.702-53.073-91.161-80.546-212.917-68.683-310.946 7.493-66.185 36.215-151.727 68.683-207.298 33.093-56.82 119.883-143.61 176.702-176.702 91.161-53.073 212.917-80.546 310.946-68.683 66.185 7.493 151.727 36.215 207.298 68.683 56.82 33.093 143.61 119.883 176.702 176.702 53.073 91.161 80.546 212.917 68.683 310.322-7.493 66.81-36.215 152.351-68.683 207.298-33.717 56.82-102.4 128.624-159.844 166.088-94.907 62.439-224.156 93.659-332.176 79.922zM573.815 871.961c94.907-14.985 174.829-55.571 240.39-121.756 168.585-167.961 168.585-436.449 0-604.41-167.961-168.585-436.449-168.585-604.41 0-168.585 167.961-168.585 436.449 0 604.41 96.78 97.405 233.522 142.985 364.020 121.756zM463.298 809.522c-139.239-23.727-249.756-118.634-292.215-251.005-74.927-233.522 103.649-477.659 347.161-474.537 99.278 1.249 177.327 34.966 250.38 108.020 114.263 114.263 139.863 275.356 66.81 423.961-24.976 51.824-99.902 128-151.727 154.849-64.937 33.717-156.098 49.951-220.41 38.712z" />
<glyph unicode="&#xe055;" glyph-name="unknow-user2" d="M455.805 952.507c-61.815-7.493-149.229-36.839-202.927-68.683-56.82-33.093-143.61-119.883-176.702-176.702-53.073-91.161-80.546-212.917-68.683-310.946 7.493-66.185 36.215-151.727 68.683-207.298 33.093-56.82 119.883-143.61 176.702-176.702 91.161-53.073 212.917-80.546 310.946-68.683 66.185 7.493 151.727 36.215 207.298 68.683 56.82 33.093 143.61 119.883 176.702 176.702 53.073 91.161 80.546 212.917 68.683 310.322-7.493 66.81-36.215 152.351-68.683 207.298-33.717 56.82-102.4 128.624-159.844 166.088-94.907 62.439-224.156 93.659-332.176 79.922zM573.815 871.961c94.907-14.985 174.829-55.571 240.39-121.756 168.585-167.961 168.585-436.449 0-604.41-167.961-168.585-436.449-168.585-604.41 0-168.585 167.961-168.585 436.449 0 604.41 96.78 97.405 233.522 142.985 364.020 121.756zM463.298 784.546c-169.21-28.722-290.341-170.459-290.341-339.668 0-265.99 288.468-428.956 518.244-292.839 188.566 112.39 222.283 374.010 68.683 531.98-74.302 76.176-196.683 118.010-296.585 100.527z" />
<glyph unicode="&#xe056;" glyph-name="viewed" horiz-adv-x="1450" d="M248.784 924.263l-35.737-36.424 165.627-165.627-51.544-32.988c-97.589-61.852-239.85-187.619-306.513-272.15l-21.305-26.803 46.733-38.486c116.145-96.215 283.146-191.055 410.974-232.977 162.191-52.231 312.011-57.729 473.514-17.181l54.293 13.745 90.030-89.342 90.030-90.030 36.424 35.737 35.737 36.424-146.384 146.384 50.169 25.428c96.902 48.795 268.714 164.94 300.328 204.113 18.556 21.992-160.816 199.302-292.768 287.957-221.981 149.82-419.909 186.244-622.647 114.77l-48.107-17.181-96.215 94.84-96.215 95.528-36.424-35.737zM817.138 747.64c189.681-59.103 279.71-283.834 181.434-453.584l-17.181-29.552-38.486 37.799-37.799 38.486 12.37 32.988c12.37 32.301 17.868 113.396 8.247 123.017-2.749 2.749-11.683-1.374-20.617-9.621-17.868-17.181-47.42-28.864-70.787-28.864-30.239 0-70.099 25.428-85.219 54.98-21.305 41.235-15.807 81.783 15.119 114.77 8.247 8.934 12.37 17.868 10.309 20.617-9.621 8.934-85.219 4.123-120.956-7.56l-36.424-12.37-37.799 37.111-37.799 37.799 25.428 15.119c72.161 42.609 170.438 53.605 250.158 28.864zM538.803 535.281c-51.544-100.338-2.062-230.228 106.523-278.336 39.173-17.181 108.585-17.868 154.631-2.062l33.675 12.37 37.111-37.799 37.799-37.111-23.366-14.432c-68.725-41.922-172.499-54.293-252.22-29.552-105.149 32.301-188.993 122.33-213.047 228.166-17.181 74.223-2.749 170.438 35.050 231.603l14.432 23.366 39.173-39.173c38.486-37.799 39.173-39.86 30.239-57.042z" />
<glyph unicode="&#xe057;" glyph-name="Target4" d="M459.733 957.44c-133.547-13.44-263.68-84.267-347.093-189.44-73.387-92.8-112.64-203.947-112.64-320 0-263.040 201.173-484.267 463.787-509.653 216.533-21.12 426.667 101.333 515.413 300.587 35.84 80.213 50.773 171.307 42.453 257.28-2.987 31.573-13.013 80.213-22.187 108.587-7.893 24.32-32.427 82.133-34.987 82.133-0.64 0-22.827-21.333-48.853-47.573l-47.573-47.573 4.267-11.093c5.973-15.147 16.427-55.467 19.84-76.16 3.413-22.187 3.413-91.093-0.213-113.067-13.227-82.347-50.773-156.373-109.013-214.4-58.027-58.24-132.053-95.787-214.4-109.013-21.973-3.627-90.88-3.627-113.067-0.213-117.333 18.773-218.453 88.533-277.333 191.36-61.013 106.453-66.347 240.427-13.867 350.72 20.907 43.733 43.307 75.52 76.8 109.013 103.68 103.68 254.080 139.307 392.96 93.013l20.693-7.040 48.213 48.427 48.427 48.427-29.653 13.013c-69.973 30.933-140.16 45.653-213.76 45.013-16-0.213-37.547-1.28-48.213-2.347zM817.707 861.44l-85.973-85.973v-72.533l-119.253-118.827-5.973 4.267c-11.093 7.893-32.427 17.493-49.067 22.187-23.68 6.827-65.067 6.827-88.747 0-41.6-11.947-75.307-36.693-98.133-72.32-61.653-95.573-13.013-220.8 98.133-252.8 23.68-6.827 65.067-6.827 88.747 0 97.067 27.947 148.907 128.213 114.56 221.227-5.12 13.227-13.013 28.373-19.627 37.12l-3.84 5.12 118.4 118.827h72.533l172.8 172.8h-107.733l-0.427 53.333-0.64 53.333-85.76-85.76z" />
<glyph unicode="&#xe058;" glyph-name="Watch3" horiz-adv-x="1544" d="M1394.824 954.729c-6.024-3.012-160.376-154.353-342.588-336.941l-331.294-331.671-156.235 156.235c-129.882 129.506-158.871 156.988-172.8 161.882-21.459 7.529-31.624 7.153-48.565-1.506-17.694-9.035-24.847-16.941-34.259-38.024-9.412-20.329-9.788-33.129-2.259-51.953 7.153-16.565 355.012-367.812 381.741-385.129 20.329-13.176 39.529-14.306 59.859-3.765 18.447 9.788 733.365 725.459 738.635 739.388 8.659 24.094 0.376 62.871-17.318 78.682-19.2 16.941-53.082 22.588-74.918 12.8zM700.235 905.035c-117.835-11.294-239.435-52.706-350.118-119.341-118.212-71.153-256-208.941-328.659-327.906l-22.212-36.141 22.212-36.141c49.318-80.941 152.847-197.271 230.776-259.012 79.812-63.247 187.106-122.729 272.565-150.588 134.024-44.047 278.588-51.576 416.376-21.459 116.329 25.6 244.329 88.471 347.859 170.918 89.224 70.776 181.459 174.306 236.047 265.035l19.2 31.247-22.212 36.141c-26.353 43.294-72.282 103.529-114.447 149.082l-30.871 33.882-158.494-158.494c-130.259-130.259-159.624-161.882-165.647-176.565-28.988-70.776-91.482-133.647-164.141-164.518-10.541-4.518-31.624-21.082-54.965-43.671-49.318-47.812-68.518-57.976-108.8-57.976-26.729 0-32.753 1.506-56.471 13.176-24.094 12.047-43.294 30.118-219.482 205.176-185.224 184.094-193.882 193.129-208.188 222.118-15.059 29.741-15.435 30.494-13.553 61.365 2.635 42.541 19.2 77.553 51.576 107.294 30.494 28.235 56.094 38.024 94.118 35.388 46.306-3.012 70.776-15.435 111.812-56.471l35.012-34.635 12.047 15.059c86.212 108.424 232.282 146.447 357.647 93.741 26.729-11.294 60.235-31.624 75.671-45.929l10.541-9.788 83.576 83.576c77.176 77.553 82.824 84.329 76.047 88.471-13.553 7.906-70.776 33.129-95.624 42.165-86.588 31.247-155.106 43.294-250.729 45.176-39.153 0.376-79.059 0.376-88.471-0.376z" />
<glyph unicode="&#xe059;" glyph-name="Watch31" horiz-adv-x="1446" d="M224 905.6l-34.56-35.2 61.44-62.72 61.44-62.080-41.6-32c-58.88-44.8-147.2-140.16-190.080-204.16-42.88-63.36-44.16-55.68 22.4-145.28 76.8-103.68 197.12-207.36 303.36-259.84 166.4-83.84 357.12-97.92 533.76-39.68l40.32 13.44 66.56-65.92 66.56-66.56 36.48 37.12 37.12 36.48-54.4 54.4c-29.44 29.44-52.48 55.040-50.56 56.32 1.28 1.28 25.6 17.92 53.12 37.12 64.64 43.52 150.4 127.36 201.6 197.12 61.44 83.2 62.080 84.48 41.6 117.12-60.16 96-170.24 209.92-262.4 271.36-202.24 135.040-448 160-666.88 67.84l-44.8-18.56-69.12 69.12c-38.4 38.4-71.040 69.76-72.96 69.76s-19.2-16-38.4-35.2zM801.92 704c108.8-33.28 184.32-138.88 183.68-255.36-0.64-46.72-13.44-90.88-40.96-137.6l-17.92-30.72-81.28 80 11.52 23.040c15.36 30.080 22.4 73.6 14.080 88.32-5.76 10.88-6.4 10.88-10.88 0-10.24-27.52-71.68-39.68-102.4-19.84-32.64 21.76-44.8 74.24-24.32 104.32 5.76 7.68 19.2 19.84 30.080 26.24l19.2 11.52-27.52 7.68c-32.64 8.96-72.32 3.84-104.32-12.16l-22.4-11.52-80 80 26.24 17.28c61.44 40.96 151.68 51.84 227.2 28.8zM566.4 453.12c2.56-88.96 66.56-152.32 154.88-152.32 36.48 0 37.12 0 76.8-39.68 22.4-21.76 40.32-42.24 40.32-44.16 0-2.56-13.44-8.96-30.080-14.72-132.48-42.88-265.6 12.16-326.4 134.4-31.36 63.36-35.84 126.080-14.72 195.2l14.080 46.080 84.48-84.48 0.64-40.32z" />
<glyph unicode="&#xe060;" glyph-name="answer" horiz-adv-x="1381" d="M577.289 950.379c-160.816-21.305-270.776-59.103-382.797-132.639-131.952-85.906-208.923-224.73-187.619-335.377 41.235-212.36 270.776-360.805 612.338-395.168 67.35-6.872 94.153-6.185 173.874 3.436 52.231 6.185 115.458 16.494 141.573 23.366l47.42 12.37 19.243-19.93c37.799-39.86 153.256-114.083 232.29-149.133l30.239-13.058-23.366 29.552c-12.37 16.494-26.803 41.922-31.613 56.354-14.432 41.922-11.683 109.272 7.56 167.001 13.745 43.297 23.366 59.103 62.54 101.026 134.013 144.322 131.264 309.949-6.185 450.835-147.071 149.82-438.464 234.352-695.495 201.364z" />
<glyph unicode="&#xe061;" glyph-name="answer-2" horiz-adv-x="1176" d="M448.79 944.83c-111.249-20.227-235.141-89.758-313.521-173.195-171.931-187.101-171.931-422.242 0-608.079 160.553-173.195 413.393-231.348 662.44-150.44l84.701 27.812 146.647-51.832c80.909-29.077 146.647-48.040 146.647-42.983s-20.227 69.531-46.775 142.854l-45.511 135.269 25.284 54.36c49.304 104.928 59.417 184.573 35.398 275.595-73.323 283.18-374.202 451.319-695.309 390.637z" />
<glyph unicode="&#xe062;" glyph-name="ip-5" d="M164.94 957.595c-53.262-9.278-117.176-56.698-143.291-105.836-23.023-43.984-21.992-21.992-20.617-409.256 1.031-388.983-1.031-353.589 24.054-401.697 13.745-26.803 56.011-68.725 83.157-83.157 43.64-22.679 22.336-21.648 403.758-21.648s360.118-1.031 403.758 21.648c27.146 14.432 69.412 56.354 83.157 83.157 25.085 48.107 23.366 15.463 23.366 407.195s1.718 359.087-23.366 407.195c-13.745 26.803-56.011 68.725-83.157 83.157-43.64 22.679-22.336 21.648-399.979 21.305-188.306-0.344-346.030-1.374-350.84-2.062zM292.081 446.282v-365.96h-147.758v731.919h147.758v-365.96zM773.498 806.744c25.772-7.903 43.984-19.243 64.258-40.204 35.737-38.142 41.922-62.54 41.922-170.781 0-42.609-1.374-86.25-3.436-97.589-10.309-62.883-59.447-112.021-122.33-122.33-11.34-2.062-53.949-3.436-94.84-3.436h-74.91v-292.081h-144.322v731.919h157.38c134.701 0 160.129-0.687 176.279-5.498zM586.566 665.514c-1.374-1.031-2.405-34.362-2.405-73.879v-71.474h147.758v147.758h-71.474c-39.517 0-72.848-1.031-73.879-2.405z" />
<glyph unicode="&#xe063;" glyph-name="edit-3" d="M186.514 958.851c-55.798-5.851-105.535-33.646-141.793-79.099-25.6-32.078-39.811-67.605-43.677-108.878-0.836-8.359-1.045-107.938-0.836-330.71l0.313-318.694 2.508-13.061c8.15-43.886 26.854-79.099 58.619-110.759 32.078-31.974 66.978-50.469 110.759-58.619l13.061-2.508 318.694-0.313c222.772-0.209 322.351 0 330.71 0.836 50.469 4.702 92.264 24.764 128.731 61.858 31.347 31.765 49.633 66.873 57.469 110.028l2.403 13.584v392.15l-3.135 4.493c-5.433 7.732-17.136 11.807-26.645 9.3-4.18-1.149-7.941-4.389-31.66-28.003-17.032-16.927-27.69-28.421-28.944-31.033-2.090-4.284-2.090-7.105-2.090-167.811 0-99.265-0.418-166.452-1.045-171.259-1.776-13.166-5.016-24.033-10.971-36.049-13.688-27.69-38.766-49.842-67.5-59.455-18.39-6.165 0.94-5.851-339.487-5.851-340.010 0-321.097-0.313-339.278 5.747-22.988 7.732-44.304 23.824-59.141 44.617-6.792 9.404-13.793 24.66-17.241 36.885l-2.821 10.449-0.313 316.082c-0.209 280.555-0.104 317.231 1.358 326.426 7.21 46.498 42.318 83.696 89.861 95.399 6.687 1.567 21.629 1.776 181.812 2.299l174.498 0.627 6.792 2.508c15.673 5.642 22.361 11.076 49.11 40.020 14.942 16.196 19.853 24.764 20.689 35.318 0.418 6.687 0.313 7.21-2.717 10.553l-3.135 3.553-208.353 0.104c-114.521 0.104-212.010-0.209-216.607-0.731zM840.098 958.328c-3.762-0.731-10.344-3.135-14.629-5.224-7.314-3.553-10.449-6.374-43.677-39.497l-35.736-35.631 196.545-196.441 34.168 34.482c36.571 36.885 39.811 40.96 44.408 55.38 3.344 10.553 3.239 30.407-0.209 40.229-4.911 14.106-7.001 16.509-65.306 75.024-30.511 30.616-57.783 57.469-60.709 59.768-15.151 11.703-35.422 16.091-54.857 11.912zM500.297 632.216c-110.759-110.864-202.397-202.606-203.651-204.069-24.346-28.108-40.438-61.544-48.274-100.31-4.075-20.062-4.911-35.422-4.911-94.145v-54.335l68.232 0.418c71.471 0.522 69.59 0.313 90.802 5.329 12.225 2.926 27.272 8.464 43.677 16.091 12.225 5.642 33.437 19.331 43.363 27.794 8.568 7.419 408.033 407.51 408.033 408.764 0 0.94-194.456 195.814-195.396 195.814-0.313 0-91.115-90.593-201.874-201.352z" />
<glyph unicode="&#xe064;" glyph-name="delate" d="M91.323 956.062c-31.508-8.369-63.508-34.462-77.538-63.015-18.708-38.4-16.985-86.4 4.431-124.062 4.677-8.123 58.338-63.015 161.231-165.169l154.092-153.108-48-48.738c-26.338-26.831-96.738-97.969-156.554-158.277-116.923-118.154-117.169-118.4-125.292-153.108-4.923-21.169-4.677-39.385 1.231-61.785 5.908-23.631 14.523-38.4 32.492-56.615 18.215-18.462 42.585-30.277 70.4-34.215 17.723-2.708 23.385-2.462 40.369 0.985 39.385 8.369 32 1.723 205.292 174.769l157.785 157.292 156.062-156.062c149.908-150.154 156.8-156.554 174.523-165.169 51.2-24.615 108.062-14.769 145.723 25.354 26.831 28.308 35.446 52.923 33.231 94.769-1.477 30.031-6.892 45.538-23.877 68.185-6.646 8.615-78.523 82.215-159.754 163.446l-147.938 147.692 156.062 156.308c134.646 134.892 157.046 158.277 163.446 171.077 35.692 72.369-0.492 158.031-75.323 178.708-32.738 9.108-72.123 4.185-99.938-12.554-8.862-5.415-64.492-59.323-167.877-162.708l-154.338-154.585-151.138 152.123c-104.862 106.092-155.569 155.323-166.154 162.215-29.292 18.954-69.415 25.354-102.646 16.246z" />
<glyph unicode="&#xe065;" glyph-name="plus" d="M494.2 957.8c-35.2-6.8-65.2-38.6-70.2-74.2-1-7-2-87.6-2-179v-166.6h-166.4c-105.2 0-171.4-0.8-179.6-2.2-38.4-6-68-35.8-74.4-74.6-7.8-47.2 27-94.4 74.8-101.2 7-1 87.6-2 179.2-2h166.4v-166.4c0-91.6 1-172.2 2-179.2 6.8-47.8 54-82.6 101.2-74.8 38.8 6.4 68.6 36 74.6 74.4 1.4 8.2 2.2 74.4 2.2 179.6v166.4h166.6c91.4 0 172 1 179 2 47.8 6.8 82.6 54 74.8 101.2-6.4 38.8-36 68.6-74.4 74.6-8.2 1.4-74.4 2.2-179.4 2.2h-166.6v166.6c0 91.4-1 172-2 179-7 49.8-56 84-105.8 74.2z" />
<glyph unicode="&#xe066;" glyph-name="minus" d="M74 535.8c-46.2-7.8-80-54.8-72.4-101 6.4-39 36.8-69.4 74.8-74.8 16.8-2.6 854.4-2.6 871.2 0 47.8 6.8 82.6 54 74.8 101.2-6.4 38.8-36 68.6-74.4 74.6-16.6 2.8-858 2.6-874 0z" />
<glyph unicode="&#xe067;" glyph-name="total" d="M183 959.3c-18.4-2-39.6-9.8-55.4-20.6-7.9-5.3-20.6-17.5-26.7-25.6-17.2-22.9-25.8-55.8-21.9-83.6 2.5-17.6 8.9-34.5 18.5-49.2 5.1-7.7 26-29.1 167.4-170.5l161.6-161.8-161.6-161.7c-141.4-141.5-162.3-162.9-167.4-170.6-19.7-30-24.6-66.6-13.5-99.7 5.8-17.4 13.5-30.4 25.9-43.2 16-16.9 35.7-28 60.1-34.1l8.5-2.1 357.3-0.3c392.7-0.4 364.7-0.8 377.7 5.7 14 6.9 25.2 19.8 29.7 34.3 2.3 7.2 2.3 7.5 2.3 73.2s0 66-2.3 73.2c-4.4 14-15.8 27.4-28.8 33.9-12.8 6.3 5.9 5.8-234.4 6.1l-218.4 0.3 105.5 105.8c89.9 90 106.4 107 111.1 114.2 6.7 10.2 9.7 16.1 13.2 25.8 5.3 14.8 6.1 20.3 6 40.2 0 16.9-0.3 19.4-2.8 28.5-3.1 11.6-9.4 25.4-16.2 35.8-3.7 5.5-29.5 32-110.6 113.2-58.2 58.3-105.8 106.4-105.8 106.8s97.8 0.7 217.3 0.7c238.7 0 223.1-0.4 236 6.1 8.6 4.4 20.2 16.3 24.5 25.1 6 12.4 6.2 14 6.2 81.3 0 68-0.1 69.2-6.6 82.4-5 10.1-14.4 19.5-24.5 24.5-14.5 7.1 16.5 6.6-374.9 6.4-194.4-0.1-355.1-0.3-357-0.5z" />
<glyph unicode="&#xe068;" glyph-name="arrow-right-quote" d="M550.249 31.918c-4.687 0-9.408 0.978-13.836 2.979-12.094 5.451-19.872 17.489-19.872 30.741v199.341h-186.427c-112.524 0-211.874-76.702-259.284-200.196-5.834-15.185-21.648-23.975-37.632-21.075-15.983 2.967-27.572 16.905-27.572 33.169v129.361c0 182.852 33.012 425.929 318.395 425.929h192.519v199.341c0 13.263 7.767 25.29 19.872 30.741 12.083 5.44 26.268 3.293 36.182-5.474l433.246-382.947c7.239-6.396 11.386-15.59 11.386-25.256s-4.148-18.872-11.397-25.268l-433.246-382.936c-6.272-5.564-14.252-8.452-22.334-8.452z" />
<glyph unicode="&#xe069;" glyph-name="arrow-quote" d="M536.4 773.4c-11.6-6.4-11.4-5-12.4-98.2l-1-86-27-4.4c-130.4-21-249.6-68-336.6-132.2-26.4-19.6-74.6-68-91.8-92.6-27.8-39.4-50.2-91.2-59.4-138-4.4-22.8-8.2-56-8.2-73.4 0-18 8.2-28.6 22.2-28.6 10 0 16 5.4 25.4 22.6 26.6 48 79.2 94.2 139.4 122.6 52.8 24.8 109.2 39 185 46.6 31.2 3.2 91 6.2 124.6 6.2h29.4v-91c0-99 0-99.6 11-104.6 12-5.6 13.8-4.6 95.6 50.4 43 29 146.8 98.8 230.4 155 96.6 64.8 153.6 104.4 156.6 108.4 2.4 3.6 4.4 8.8 4.4 11.8s-2 8.2-4.4 11.8c-3 4-64.4 46.4-167.6 115.8-89.6 60.2-193.4 130-230.6 155-70.8 47.6-73.6 49-85 42.8z" />
<glyph unicode="&#xe070;" glyph-name="quotes-2" d="M199 800.8c-73.6-13-139.2-61.4-172.2-127.2-18.8-37.4-25.4-65.2-25.6-107.6-0.2-35.2 2.8-52.4 13.8-83.6 27.6-76.8 99-138.2 178.4-152.8l12.8-2.4-1.2-10c-2.4-18-14.6-62.6-23-84-10.8-27.4-25.2-55.2-42.2-81.2-12-18.4-13.8-22.6-13.8-30.4 0-17.4 14.6-30.6 31.8-29 11.2 1.2 62 26.4 90.2 45 104 68 178 168.8 212.8 290 17.6 60.8 23.6 139.6 14.2 184-17.8 85.4-79.6 154.4-161.6 181.2-33.2 10.8-80 14.2-114.4 8zM743 800.8c-73.6-13-139.2-61.4-172.2-127.2-18.8-37.4-25.4-65.2-25.6-107.6-0.2-35.2 2.8-52.4 13.8-83.6 27.4-76.6 99.2-138.2 177.6-152.6l13.6-2.6-1.2-10c-2.4-17.8-14.6-62.6-23-83.8-10.6-27-25.2-55.4-42.2-81.6-12-18.2-13.8-22.4-13.8-30.2 0-17.4 14.6-30.6 31.8-29 11.2 1.2 62 26.4 90.2 45 104 68 178 168.8 212.8 290 17.6 60.8 23.6 139.6 14.2 184-13.2 63-51.4 119.4-104.2 153.6-17.8 11.8-44.2 24-62.8 29.4-32.2 9.4-77 11.8-109 6.2z" />
<glyph unicode="&#xe071;" glyph-name="quotes" d="M199 800.8c-73.6-13-139.2-61.4-172.2-127.2-18.8-37.4-25.4-65.2-25.6-107.6-0.2-35.2 2.8-52.4 13.8-83.6 27.6-76.8 99-138.2 178.4-152.8l12.8-2.4-1.2-10c-2.4-18-14.6-62.6-23-84-10.8-27.4-25.2-55.2-42.2-81.2-12-18.4-13.8-22.6-13.8-30.4 0-17.4 14.6-30.6 31.8-29 11.2 1.2 62 26.4 90.2 45 104 68 178 168.8 212.8 290 17.6 60.8 23.6 139.6 14.2 184-17.8 85.4-79.6 154.4-161.6 181.2-33.2 10.8-80 14.2-114.4 8zM285 739.2c31.8-8.8 57.8-24 81.2-47.2 34-33.4 51-72.2 53.2-121 3-63-14-140-44.2-202.4-22.4-45.8-50.8-86.2-85.2-120.8-19.8-20-53.8-48.6-55.6-46.8-0.4 0.4 2 8.2 5.2 17.4 13.6 37.4 21.6 70.8 27.4 114.4 3 22.2 3 24.6 0 32.6-5 13.2-12 16.8-34.8 18.8-44.2 4-78.8 17.8-108.4 43.2-27.8 23.8-46.2 52.2-57.2 88-4.6 15.6-5.2 21.2-5.4 47.6-0.2 32.6 2.8 49.2 13.8 73.8 23 52 73.4 92.8 129 104.4 17.4 3.6 64.8 2.4 81-2zM743 800.8c-73.6-13-139.2-61.4-172.2-127.2-18.8-37.4-25.4-65.2-25.6-107.6-0.2-35.2 2.8-52.4 13.8-83.6 27.4-76.6 99.2-138.2 177.6-152.6l13.6-2.6-1.2-10c-2.4-17.8-14.6-62.6-23-83.8-10.6-27-25.2-55.4-42.2-81.6-12-18.2-13.8-22.4-13.8-30.2 0-17.4 14.6-30.6 31.8-29 11.2 1.2 62 26.4 90.2 45 104 68 178 168.8 212.8 290 17.6 60.8 23.6 139.6 14.2 184-13.2 63-51.4 119.4-104.2 153.6-17.8 11.8-44.2 24-62.8 29.4-32.2 9.4-77 11.8-109 6.2zM819.6 740.8c47.4-9.8 89.6-38.6 115.8-79.4 17.8-27.2 26.4-55.2 28-90.4 3-63-14-140-44.2-202.4-22.4-45.8-51-86.4-85.2-120.6-20.2-20.2-53.8-48.8-55.6-47.2-0.4 0.6 2 8.4 5.2 17.6 13.6 37.4 21.6 70.8 27.4 114.4 3 22.2 3 24.6 0 32.6-5 13-12 16.8-33.8 18.8-45.6 4.2-79.6 17.6-109.4 43.2-27.8 23.8-46.2 52.2-57.2 88-4.6 15.6-5.2 21.2-5.4 47.6-0.2 32.6 2 44.8 13 71.2 21.6 52.8 73.8 95.6 129.8 106.8 18.4 3.8 53.2 3.6 71.6-0.2z" />
<glyph unicode="&#xe072;" glyph-name="Ip" d="M454 770c-177.2-32.8-295.2-201.2-264.4-377.6 31.2-177.6 201.2-297.6 378-266.8 127.6 22.4 230.4 118 262.8 244.4 10 39.6 10 118.4 0 156-44.4 168.8-208.8 275.2-376.4 244zM599.2 706.4c79.2-27.6 139.6-86.8 169.6-166.4 12-32.4 12.8-36.8 12.8-90 0.4-51.2-0.8-58.8-10.8-88-29.2-82.8-91.2-145.2-172.4-172.8-29.2-10-37.6-11.2-86.4-11.2-50 0-56.4 0.8-88.4 12.4-82 29.2-141.2 88.8-170.4 171.6-10 28.8-11.2 37.2-11.2 86 0 62 6.8 89.6 34 136.4 38.4 65.2 93.6 107.2 170 128 40.8 11.2 112.4 8.4 153.2-6zM376 448v-136h44v272h-44v-136zM472 448.4v-136.4h48v104h45.2c54.4 0 80 6.4 97.6 24.8 16.8 17.2 21.2 30.4 21.2 61.6 0 34.4-10 53.6-34.8 68.4-18.8 11.2-20 11.2-98 12.4l-79.2 1.6v-136.4zM617.2 540c29.6-14.4 30-66 0.8-79.2-6-2.8-28.8-4.8-54-4.8h-44v92.8l43.2-1.6c24.4-1.2 47.6-4 54-7.2z" />
</font>
</defs>
</svg>
