<svg xmlns="http://www.w3.org/2000/svg" width="322" height="340" viewBox="0 0 322 340" version="1.1"><path d="M 142 0.575 C 140.625 0.812, 136.125 1.491, 132 2.083 C 120.977 3.666, 105.966 7.619, 95.609 11.666 C 44.692 31.560, 9.564 71.375, 1.348 118.500 C -0.998 131.956, -0.064 155.344, 3.325 168 C 10.758 195.759, 26.704 220.223, 49.416 238.710 L 53.332 241.898 41.096 289.989 C 34.366 316.439, 29.004 338.501, 29.180 339.015 C 29.356 339.529, 54.654 325.786, 85.398 308.476 L 141.296 277.002 162.898 276.625 C 186.688 276.211, 198.508 274.350, 218 267.950 C 243.157 259.691, 270.520 242.901, 286.569 225.877 C 304.218 207.157, 318.163 179.356, 320.568 158.098 C 320.948 154.744, 321.650 152, 322.129 152 C 322.608 152, 322.964 145.363, 322.921 137.250 C 322.878 129.137, 322.574 123.175, 322.246 124 C 321.919 124.825, 321.065 122.050, 320.349 117.834 C 317.365 100.271, 309.217 81.038, 298.240 65.649 C 290.534 54.846, 275.530 40.003, 263.964 31.739 C 252.749 23.727, 232.267 13.388, 219 9.042 C 200.119 2.858, 187.630 0.881, 165 0.494 C 153.725 0.301, 143.375 0.337, 142 0.575 M 140 19.078 C 107.189 23.238, 75.602 37.785, 53.854 58.750 C 42.608 69.591, 36.380 77.783, 30.096 90 C 20.751 108.168, 17.378 123.527, 18.284 143.782 C 19.739 176.278, 34.498 203.178, 63.721 226.596 C 69.100 230.906, 73.598 234.470, 73.718 234.518 C 73.839 234.565, 70.069 249.785, 65.341 268.341 C 60.614 286.897, 57.010 302.343, 57.333 302.666 C 57.656 302.989, 75.939 293.102, 97.962 280.695 L 138.003 258.137 154.252 258.686 C 179.376 259.535, 199.613 256.023, 222.798 246.788 C 254.308 234.237, 279.759 212.209, 292.453 186.500 C 301.417 168.344, 304.565 153.597, 303.659 134 C 300.986 76.149, 251.873 29.175, 183.970 19.525 C 172.822 17.940, 150.741 17.716, 140 19.078 M 85.500 120.503 C 76.633 123.639, 70.583 134.268, 73.002 142.460 C 77.821 158.780, 98.217 162.188, 107.113 148.160 C 113.775 137.656, 108.526 124.298, 96.101 120.138 C 91.818 118.704, 90.451 118.751, 85.500 120.503 M 155.500 120.162 C 150.618 121.941, 146.124 125.836, 143.881 130.232 C 139.389 139.038, 143.493 150.640, 152.673 155.084 C 168.653 162.820, 186.017 145.453, 177.752 130 C 173.604 122.245, 162.841 117.487, 155.500 120.162 M 226.365 119.955 C 216.859 122.215, 209.621 133.421, 212.031 142.149 C 214.478 151.014, 221.790 156.954, 230.290 156.984 C 241.691 157.023, 249.633 148.423, 248.802 136.937 C 248.494 132.681, 247.695 130.289, 245.715 127.693 C 240.868 121.339, 233.291 118.309, 226.365 119.955 M 0.400 138.500 C 0.401 146.750, 0.556 149.992, 0.744 145.704 C 0.932 141.417, 0.931 134.667, 0.742 130.704 C 0.552 126.742, 0.399 130.250, 0.400 138.500" stroke="none" fill="#060606" fill-rule="evenodd"/><path d="M 140 19.078 C 107.189 23.238, 75.602 37.785, 53.854 58.750 C 42.608 69.591, 36.380 77.783, 30.096 90 C 20.751 108.168, 17.378 123.527, 18.284 143.782 C 19.739 176.278, 34.498 203.178, 63.721 226.596 C 69.100 230.906, 73.598 234.470, 73.718 234.518 C 73.839 234.565, 70.069 249.785, 65.341 268.341 C 60.614 286.897, 57.010 302.343, 57.333 302.666 C 57.656 302.989, 75.939 293.102, 97.962 280.695 L 138.003 258.137 154.252 258.686 C 179.376 259.535, 199.613 256.023, 222.798 246.788 C 254.308 234.237, 279.759 212.209, 292.453 186.500 C 301.417 168.344, 304.565 153.597, 303.659 134 C 300.986 76.149, 251.873 29.175, 183.970 19.525 C 172.822 17.940, 150.741 17.716, 140 19.078 M 85.500 120.503 C 76.633 123.639, 70.583 134.268, 73.002 142.460 C 77.821 158.780, 98.217 162.188, 107.113 148.160 C 113.775 137.656, 108.526 124.298, 96.101 120.138 C 91.818 118.704, 90.451 118.751, 85.500 120.503 M 155.500 120.162 C 150.618 121.941, 146.124 125.836, 143.881 130.232 C 139.389 139.038, 143.493 150.640, 152.673 155.084 C 168.653 162.820, 186.017 145.453, 177.752 130 C 173.604 122.245, 162.841 117.487, 155.500 120.162 M 226.365 119.955 C 216.859 122.215, 209.621 133.421, 212.031 142.149 C 214.478 151.014, 221.790 156.954, 230.290 156.984 C 241.691 157.023, 249.633 148.423, 248.802 136.937 C 248.494 132.681, 247.695 130.289, 245.715 127.693 C 240.868 121.339, 233.291 118.309, 226.365 119.955" stroke="none" fill="#fbfbfb" fill-rule="evenodd"/></svg>