<svg xmlns="http://www.w3.org/2000/svg" width="322" height="340" viewBox="0 0 322 340" version="1.1"><path d="M 142 0.575 C 140.625 0.812, 136.125 1.491, 132 2.083 C 120.977 3.666, 105.966 7.619, 95.609 11.666 C 44.692 31.560, 9.564 71.375, 1.348 118.500 C -0.998 131.956, -0.064 155.344, 3.325 168 C 10.758 195.759, 26.704 220.223, 49.416 238.710 L 53.332 241.898 41.096 289.989 C 34.366 316.439, 29.004 338.501, 29.180 339.015 C 29.356 339.529, 54.654 325.786, 85.398 308.476 L 141.296 277.002 162.898 276.625 C 186.688 276.211, 198.508 274.350, 218 267.950 C 243.157 259.691, 270.520 242.901, 286.569 225.877 C 304.218 207.157, 318.163 179.356, 320.568 158.098 C 320.948 154.744, 321.650 152, 322.129 152 C 322.608 152, 322.964 145.363, 322.921 137.250 C 322.878 129.137, 322.574 123.175, 322.246 124 C 321.919 124.825, 321.065 122.050, 320.349 117.834 C 317.365 100.271, 309.217 81.038, 298.240 65.649 C 290.534 54.846, 275.530 40.003, 263.964 31.739 C 252.749 23.727, 232.267 13.388, 219 9.042 C 200.119 2.858, 187.630 0.881, 165 0.494 C 153.725 0.301, 143.375 0.337, 142 0.575 M 143.500 18.592 C 108.362 23.592, 82.647 34.153, 60.136 52.828 C 37.808 71.352, 23.307 96.165, 18.962 123.282 C 17.280 133.780, 18.227 154.138, 20.864 164.175 C 27.722 190.280, 46.095 215.143, 71.871 233.197 C 73.896 234.615, 73.836 234.934, 65.301 268.325 C 60.564 286.858, 56.965 302.299, 57.304 302.637 C 57.643 302.976, 75.927 293.109, 97.934 280.711 L 137.948 258.168 153.224 258.722 C 171.174 259.373, 184.689 258.036, 200.471 254.047 C 252.234 240.963, 289.181 208.205, 300.769 165.119 C 303.074 156.548, 303.355 153.647, 303.352 138.500 C 303.348 119.483, 302.062 112.764, 295.543 97.684 C 289.191 82.993, 283.254 74.333, 271 61.886 C 254.152 44.773, 237.336 34.387, 213.755 26.531 C 195.992 20.614, 185.674 18.918, 165 18.521 C 154.825 18.326, 145.150 18.358, 143.500 18.592 M 86.585 120.242 C 81.033 121.709, 74.645 128.383, 73.165 134.261 C 72.142 138.322, 72.254 139.604, 74.053 144.413 C 79.615 159.277, 96.739 161.386, 106.626 148.424 C 111.359 142.218, 110.815 132.499, 105.373 126.031 C 103.296 123.563, 93.501 118.771, 91.212 119.103 C 90.821 119.160, 88.738 119.672, 86.585 120.242 M 155.845 120.448 C 149.987 122.662, 147.093 124.986, 144.339 129.685 C 139.100 138.624, 142.893 149.576, 153.020 154.750 C 155.442 155.988, 159.033 157, 161 157 C 165.886 157, 172.757 153.288, 176.442 148.657 C 179.105 145.310, 179.500 144.020, 179.500 138.657 C 179.500 133.533, 179.020 131.793, 176.641 128.287 C 171.976 121.410, 162.624 117.885, 155.845 120.448 M 225.558 120.481 C 219.760 122.563, 216.773 125.083, 214.250 130.020 C 206.195 145.785, 222.609 162.693, 238.500 155 C 252.004 148.463, 252.395 128.795, 239.155 122.094 C 233.729 119.348, 229.958 118.900, 225.558 120.481 M 0.400 138.500 C 0.401 146.750, 0.556 149.992, 0.744 145.704 C 0.932 141.417, 0.931 134.667, 0.742 130.704 C 0.552 126.742, 0.399 130.250, 0.400 138.500" stroke="none" fill="#060606" fill-rule="evenodd"/><path d="M 143.500 18.592 C 108.362 23.592, 82.647 34.153, 60.136 52.828 C 37.808 71.352, 23.307 96.165, 18.962 123.282 C 17.280 133.780, 18.227 154.138, 20.864 164.175 C 27.722 190.280, 46.095 215.143, 71.871 233.197 C 73.896 234.615, 73.836 234.934, 65.301 268.325 C 60.564 286.858, 56.965 302.299, 57.304 302.637 C 57.643 302.976, 75.927 293.109, 97.934 280.711 L 137.948 258.168 153.224 258.722 C 171.174 259.373, 184.689 258.036, 200.471 254.047 C 252.234 240.963, 289.181 208.205, 300.769 165.119 C 303.074 156.548, 303.355 153.647, 303.352 138.500 C 303.348 119.483, 302.062 112.764, 295.543 97.684 C 289.191 82.993, 283.254 74.333, 271 61.886 C 254.152 44.773, 237.336 34.387, 213.755 26.531 C 195.992 20.614, 185.674 18.918, 165 18.521 C 154.825 18.326, 145.150 18.358, 143.500 18.592 M 86.585 120.242 C 81.033 121.709, 74.645 128.383, 73.165 134.261 C 72.142 138.322, 72.254 139.604, 74.053 144.413 C 79.615 159.277, 96.739 161.386, 106.626 148.424 C 111.359 142.218, 110.815 132.499, 105.373 126.031 C 103.296 123.563, 93.501 118.771, 91.212 119.103 C 90.821 119.160, 88.738 119.672, 86.585 120.242 M 155.845 120.448 C 149.987 122.662, 147.093 124.986, 144.339 129.685 C 139.100 138.624, 142.893 149.576, 153.020 154.750 C 155.442 155.988, 159.033 157, 161 157 C 165.886 157, 172.757 153.288, 176.442 148.657 C 179.105 145.310, 179.500 144.020, 179.500 138.657 C 179.500 133.533, 179.020 131.793, 176.641 128.287 C 171.976 121.410, 162.624 117.885, 155.845 120.448 M 225.558 120.481 C 219.760 122.563, 216.773 125.083, 214.250 130.020 C 206.195 145.785, 222.609 162.693, 238.500 155 C 252.004 148.463, 252.395 128.795, 239.155 122.094 C 233.729 119.348, 229.958 118.900, 225.558 120.481" stroke="none" fill="#e3e3e3" fill-rule="evenodd"/></svg>