<svg xmlns="http://www.w3.org/2000/svg" width="322" height="340" viewBox="0 0 322 340" version="1.1"><path d="M 142 0.575 C 140.625 0.812, 136.125 1.491, 132 2.083 C 120.977 3.666, 105.966 7.619, 95.609 11.666 C 44.692 31.560, 9.564 71.375, 1.348 118.500 C -0.998 131.956, -0.064 155.344, 3.325 168 C 10.758 195.759, 26.704 220.223, 49.416 238.710 L 53.332 241.898 41.096 289.989 C 34.366 316.439, 29.004 338.501, 29.180 339.015 C 29.356 339.529, 54.654 325.786, 85.398 308.476 L 141.296 277.002 162.898 276.625 C 186.688 276.211, 198.508 274.350, 218 267.950 C 243.157 259.691, 270.520 242.901, 286.569 225.877 C 304.218 207.157, 318.163 179.356, 320.568 158.098 C 320.948 154.744, 321.650 152, 322.129 152 C 322.608 152, 322.964 145.363, 322.921 137.250 C 322.878 129.137, 322.574 123.175, 322.246 124 C 321.919 124.825, 321.065 122.050, 320.349 117.834 C 317.365 100.271, 309.217 81.038, 298.240 65.649 C 290.534 54.846, 275.530 40.003, 263.964 31.739 C 252.749 23.727, 232.267 13.388, 219 9.042 C 200.119 2.858, 187.630 0.881, 165 0.494 C 153.725 0.301, 143.375 0.337, 142 0.575 M 142.500 18.625 C 131.152 20.292, 116.985 23.449, 108.943 26.103 C 63.650 41.051, 31.886 72.493, 20.767 113.387 C 18.877 120.336, 18.565 124.012, 18.591 139 C 18.616 153.723, 18.959 157.718, 20.750 164.175 C 27.592 188.834, 41.562 209.025, 64.601 227.555 L 73.795 234.950 65.233 268.477 C 60.523 286.917, 56.947 302.280, 57.285 302.619 C 57.624 302.957, 75.760 293.195, 97.587 280.926 L 137.274 258.617 159.387 258.514 C 184.787 258.395, 194.298 256.913, 214.735 249.892 C 259.038 234.672, 289.963 204.376, 300.567 165.806 C 303.770 154.155, 304.892 134.854, 303.038 123.282 C 294.934 72.699, 252.144 32.764, 193.370 20.930 C 185.035 19.252, 178.185 18.676, 164 18.463 C 153.825 18.310, 144.150 18.383, 142.500 18.625 M 152.054 54.728 C 145.369 57.088, 138.501 64.470, 136.461 71.488 C 135.549 74.623, 135.010 78.609, 135.264 80.344 C 135.517 82.080, 139.193 103.300, 143.432 127.500 C 150.830 169.738, 151.252 171.616, 153.975 174.386 C 156.207 176.657, 157.704 177.273, 161 177.273 C 164.296 177.273, 165.793 176.657, 168.025 174.386 C 170.748 171.616, 171.170 169.738, 178.568 127.500 C 182.807 103.300, 186.483 82.080, 186.736 80.344 C 187.589 74.501, 184.346 66.250, 179.156 61.061 C 171.606 53.511, 161.914 51.246, 152.054 54.728 M 0.400 138.500 C 0.401 146.750, 0.556 149.992, 0.744 145.704 C 0.932 141.417, 0.931 134.667, 0.742 130.704 C 0.552 126.742, 0.399 130.250, 0.400 138.500 M 157.115 192.028 C 155.254 192.454, 152.185 194.348, 150.296 196.237 C 144.733 201.800, 144.020 209.803, 148.480 216.610 C 150.469 219.646, 157.041 223, 161 223 C 164.959 223, 171.531 219.646, 173.520 216.610 C 177.906 209.916, 177.262 201.929, 171.890 196.387 C 170.093 194.532, 167.920 192.828, 167.061 192.600 C 162.809 191.472, 160.205 191.322, 157.115 192.028" stroke="none" fill="#050505" fill-rule="evenodd"/><path d="M 142.500 18.625 C 131.152 20.292, 116.985 23.449, 108.943 26.103 C 63.650 41.051, 31.886 72.493, 20.767 113.387 C 18.877 120.336, 18.565 124.012, 18.591 139 C 18.616 153.723, 18.959 157.718, 20.750 164.175 C 27.592 188.834, 41.562 209.025, 64.601 227.555 L 73.795 234.950 65.233 268.477 C 60.523 286.917, 56.947 302.280, 57.285 302.619 C 57.624 302.957, 75.760 293.195, 97.587 280.926 L 137.274 258.617 159.387 258.514 C 184.787 258.395, 194.298 256.913, 214.735 249.892 C 259.038 234.672, 289.963 204.376, 300.567 165.806 C 303.770 154.155, 304.892 134.854, 303.038 123.282 C 294.934 72.699, 252.144 32.764, 193.370 20.930 C 185.035 19.252, 178.185 18.676, 164 18.463 C 153.825 18.310, 144.150 18.383, 142.500 18.625 M 152.054 54.728 C 145.369 57.088, 138.501 64.470, 136.461 71.488 C 135.549 74.623, 135.010 78.609, 135.264 80.344 C 135.517 82.080, 139.193 103.300, 143.432 127.500 C 150.830 169.738, 151.252 171.616, 153.975 174.386 C 156.207 176.657, 157.704 177.273, 161 177.273 C 164.296 177.273, 165.793 176.657, 168.025 174.386 C 170.748 171.616, 171.170 169.738, 178.568 127.500 C 182.807 103.300, 186.483 82.080, 186.736 80.344 C 187.589 74.501, 184.346 66.250, 179.156 61.061 C 171.606 53.511, 161.914 51.246, 152.054 54.728 M 157.115 192.028 C 155.254 192.454, 152.185 194.348, 150.296 196.237 C 144.733 201.800, 144.020 209.803, 148.480 216.610 C 150.469 219.646, 157.041 223, 161 223 C 164.959 223, 171.531 219.646, 173.520 216.610 C 177.906 209.916, 177.262 201.929, 171.890 196.387 C 170.093 194.532, 167.920 192.828, 167.061 192.600 C 162.809 191.472, 160.205 191.322, 157.115 192.028" stroke="none" fill="#cbcbd3" fill-rule="evenodd"/></svg>