<svg xmlns="http://www.w3.org/2000/svg" width="322" height="340" viewBox="0 0 322 340" version="1.1"><path d="M 142 0.575 C 140.625 0.812, 136.125 1.491, 132 2.083 C 120.977 3.666, 105.966 7.619, 95.609 11.666 C 44.692 31.560, 9.564 71.375, 1.348 118.500 C -0.998 131.956, -0.064 155.344, 3.325 168 C 10.758 195.759, 26.704 220.223, 49.416 238.710 L 53.332 241.898 41.096 289.989 C 34.366 316.439, 29.004 338.501, 29.180 339.015 C 29.356 339.529, 54.654 325.786, 85.398 308.476 L 141.296 277.002 162.898 276.625 C 186.688 276.211, 198.508 274.350, 218 267.950 C 243.157 259.691, 270.520 242.901, 286.569 225.877 C 304.218 207.157, 318.163 179.356, 320.568 158.098 C 320.948 154.744, 321.650 152, 322.129 152 C 322.608 152, 322.964 145.363, 322.921 137.250 C 322.878 129.137, 322.574 123.175, 322.246 124 C 321.919 124.825, 321.065 122.050, 320.349 117.834 C 317.365 100.271, 309.217 81.038, 298.240 65.649 C 290.534 54.846, 275.530 40.003, 263.964 31.739 C 252.749 23.727, 232.267 13.388, 219 9.042 C 200.119 2.858, 187.630 0.881, 165 0.494 C 153.725 0.301, 143.375 0.337, 142 0.575 M 143.500 18.592 C 108.362 23.592, 82.647 34.153, 60.136 52.828 C 37.808 71.352, 23.307 96.165, 18.962 123.282 C 17.280 133.780, 18.227 154.138, 20.864 164.175 C 27.722 190.280, 46.095 215.143, 71.871 233.197 C 73.896 234.615, 73.836 234.934, 65.301 268.325 C 60.564 286.858, 56.965 302.299, 57.304 302.637 C 57.643 302.976, 75.927 293.109, 97.934 280.711 L 137.948 258.168 153.224 258.722 C 171.174 259.373, 184.689 258.036, 200.471 254.047 C 252.234 240.963, 289.181 208.205, 300.769 165.119 C 303.074 156.548, 303.355 153.647, 303.352 138.500 C 303.348 119.483, 302.062 112.764, 295.543 97.684 C 289.191 82.993, 283.254 74.333, 271 61.886 C 254.152 44.773, 237.336 34.387, 213.755 26.531 C 195.992 20.614, 185.674 18.918, 165 18.521 C 154.825 18.326, 145.150 18.358, 143.500 18.592 M 152.885 54.318 C 140.394 58.994, 133.113 71.766, 135.820 84.250 C 136.696 88.286, 147.553 150.577, 150.518 168.575 C 151.303 173.340, 156.042 177.273, 161 177.273 C 165.957 177.273, 170.696 173.341, 171.483 168.575 C 171.763 166.884, 175.212 147.050, 179.148 124.500 C 188.054 73.475, 187.478 78.150, 185.633 71.844 C 182.538 61.268, 173.602 54.064, 162.710 53.364 C 158.962 53.123, 155.067 53.502, 152.885 54.318 M 0.400 138.500 C 0.401 146.750, 0.556 149.992, 0.744 145.704 C 0.932 141.417, 0.931 134.667, 0.742 130.704 C 0.552 126.742, 0.399 130.250, 0.400 138.500 M 156.315 192.102 C 154.564 192.609, 151.762 194.392, 150.090 196.064 C 135.960 210.194, 156.841 232.390, 171.372 218.686 C 180.296 210.269, 176.826 195.268, 165.209 192.041 C 160.947 190.858, 160.608 190.860, 156.315 192.102" stroke="none" fill="#060606" fill-rule="evenodd"/><path d="M 143.500 18.592 C 108.362 23.592, 82.647 34.153, 60.136 52.828 C 37.808 71.352, 23.307 96.165, 18.962 123.282 C 17.280 133.780, 18.227 154.138, 20.864 164.175 C 27.722 190.280, 46.095 215.143, 71.871 233.197 C 73.896 234.615, 73.836 234.934, 65.301 268.325 C 60.564 286.858, 56.965 302.299, 57.304 302.637 C 57.643 302.976, 75.927 293.109, 97.934 280.711 L 137.948 258.168 153.224 258.722 C 171.174 259.373, 184.689 258.036, 200.471 254.047 C 252.234 240.963, 289.181 208.205, 300.769 165.119 C 303.074 156.548, 303.355 153.647, 303.352 138.500 C 303.348 119.483, 302.062 112.764, 295.543 97.684 C 289.191 82.993, 283.254 74.333, 271 61.886 C 254.152 44.773, 237.336 34.387, 213.755 26.531 C 195.992 20.614, 185.674 18.918, 165 18.521 C 154.825 18.326, 145.150 18.358, 143.500 18.592 M 152.885 54.318 C 140.394 58.994, 133.113 71.766, 135.820 84.250 C 136.696 88.286, 147.553 150.577, 150.518 168.575 C 151.303 173.340, 156.042 177.273, 161 177.273 C 165.957 177.273, 170.696 173.341, 171.483 168.575 C 171.763 166.884, 175.212 147.050, 179.148 124.500 C 188.054 73.475, 187.478 78.150, 185.633 71.844 C 182.538 61.268, 173.602 54.064, 162.710 53.364 C 158.962 53.123, 155.067 53.502, 152.885 54.318 M 156.315 192.102 C 154.564 192.609, 151.762 194.392, 150.090 196.064 C 135.960 210.194, 156.841 232.390, 171.372 218.686 C 180.296 210.269, 176.826 195.268, 165.209 192.041 C 160.947 190.858, 160.608 190.860, 156.315 192.102" stroke="none" fill="#e3e3e3" fill-rule="evenodd"/></svg>